%TF.GenerationSoftware,KiCad,Pcbnew,(5.1.6-0-10_14)*%
%TF.CreationDate,2020-12-19T22:37:24+01:00*%
%TF.ProjectId,ESCv2,45534376-322e-46b6-9963-61645f706362,v0.1*%
%TF.SameCoordinates,Original*%
%TF.FileFunction,Legend,Top*%
%TF.FilePolarity,Positive*%
%FSLAX46Y46*%
G04 Gerber Fmt 4.6, Leading zero omitted, Abs format (unit mm)*
G04 Created by KiCad (PCBNEW (5.1.6-0-10_14)) date 2020-12-19 22:37:24*
%MOMM*%
%LPD*%
G01*
G04 APERTURE LIST*
%ADD10C,0.100000*%
%ADD11C,0.150000*%
%ADD12C,0.120000*%
G04 APERTURE END LIST*
D10*
X72129523Y-41345714D02*
X72510476Y-41345714D01*
X72320000Y-41536190D02*
X72320000Y-41155238D01*
X71079523Y-30315714D02*
X71460476Y-30315714D01*
X71270000Y-30506190D02*
X71270000Y-30125238D01*
D11*
X74290000Y-34947142D02*
X74337619Y-34994761D01*
X74290000Y-35042380D01*
X74242380Y-34994761D01*
X74290000Y-34947142D01*
X74290000Y-35042380D01*
D10*
%TO.C,D1*%
X72912000Y-30292000D02*
G75*
G03*
X72912000Y-30292000I-50000J0D01*
G01*
%TO.C,D2*%
X70808000Y-41302000D02*
G75*
G03*
X70808000Y-41302000I-50000J0D01*
G01*
D12*
%TO.C,U1*%
X77775000Y-34140000D02*
X78250000Y-34140000D01*
X78250000Y-34140000D02*
X78250000Y-34615000D01*
X75505000Y-37360000D02*
X75030000Y-37360000D01*
X75030000Y-37360000D02*
X75030000Y-36885000D01*
X77775000Y-37360000D02*
X78250000Y-37360000D01*
X78250000Y-37360000D02*
X78250000Y-36885000D01*
X75505000Y-34140000D02*
X75030000Y-34140000D01*
%TO.C,C4*%
X71430000Y-35932064D02*
X71430000Y-34727936D01*
X73250000Y-35932064D02*
X73250000Y-34727936D01*
%TO.C,C3*%
X76230000Y-39291422D02*
X76230000Y-39808578D01*
X74810000Y-39291422D02*
X74810000Y-39808578D01*
%TD*%
M02*
