%TF.GenerationSoftware,KiCad,Pcbnew,(5.1.6-0-10_14)*%
%TF.CreationDate,2020-12-19T22:37:24+01:00*%
%TF.ProjectId,ESCv2,45534376-322e-46b6-9963-61645f706362,v0.1*%
%TF.SameCoordinates,Original*%
%TF.FileFunction,Copper,L2,Inr*%
%TF.FilePolarity,Positive*%
%FSLAX46Y46*%
G04 Gerber Fmt 4.6, Leading zero omitted, Abs format (unit mm)*
G04 Created by KiCad (PCBNEW (5.1.6-0-10_14)) date 2020-12-19 22:37:24*
%MOMM*%
%LPD*%
G01*
G04 APERTURE LIST*
%TA.AperFunction,ViaPad*%
%ADD10O,1.700000X1.700000*%
%TD*%
%TA.AperFunction,ViaPad*%
%ADD11R,1.700000X1.700000*%
%TD*%
%TA.AperFunction,ViaPad*%
%ADD12O,1.000000X1.000000*%
%TD*%
%TA.AperFunction,ViaPad*%
%ADD13R,1.000000X1.000000*%
%TD*%
%TA.AperFunction,ViaPad*%
%ADD14C,0.600000*%
%TD*%
%TA.AperFunction,Conductor*%
%ADD15C,0.300000*%
%TD*%
%TA.AperFunction,Conductor*%
%ADD16C,0.254000*%
%TD*%
G04 APERTURE END LIST*
D10*
%TO.N,MOTOR3*%
%TO.C,Motor1*%
X79040000Y-42480000D03*
%TO.N,MOTOR2*%
X76500000Y-42480000D03*
D11*
%TO.N,MOTOR1*%
X73960000Y-42480000D03*
%TD*%
D12*
%TO.N,EN*%
%TO.C,J3*%
X81690000Y-40090000D03*
%TO.N,EN_FLT*%
X81690000Y-38820000D03*
%TO.N,ENW*%
X81690000Y-37550000D03*
%TO.N,ENV*%
X81690000Y-36280000D03*
%TO.N,ENU*%
X81690000Y-35010000D03*
%TO.N,STBY_RST*%
X81690000Y-33740000D03*
D13*
%TO.N,VBATOUT*%
X81690000Y-32470000D03*
%TD*%
D10*
%TO.N,GNDPWR*%
%TO.C,J1*%
X70000000Y-39920000D03*
D11*
%TO.N,VS*%
X70000000Y-37380000D03*
%TD*%
D10*
%TO.N,GNDPWR*%
%TO.C,J5*%
X70000000Y-31920000D03*
D11*
%TO.N,VDD*%
X70000000Y-34460000D03*
%TD*%
D10*
%TO.N,INW*%
%TO.C,J2*%
X79040000Y-30030000D03*
%TO.N,INV*%
X76500000Y-30030000D03*
D11*
%TO.N,INU*%
X73960000Y-30030000D03*
%TD*%
D14*
%TO.N,GNDPWR*%
X76160000Y-35220000D03*
X77120000Y-35230000D03*
X76630000Y-35760000D03*
X76160000Y-36260000D03*
X77130000Y-36270000D03*
X72340000Y-34960000D03*
X71960000Y-32880000D03*
X72650000Y-32880000D03*
X72990000Y-34950000D03*
X74790000Y-37010000D03*
X74780000Y-37590000D03*
X77868645Y-37215539D03*
X78070000Y-37819998D03*
X77865193Y-32210263D03*
X79850911Y-31880011D03*
%TO.N,EN_FLT*%
X77790000Y-33780000D03*
%TO.N,STBY_RST*%
X77067375Y-32151065D03*
%TO.N,VS*%
X72540000Y-41810000D03*
X75430000Y-39300000D03*
X77990000Y-40100000D03*
X72980000Y-39512990D03*
%TO.N,VBATOUT*%
X78040000Y-41310000D03*
X80850000Y-39540000D03*
%TO.N,VDD*%
X70980000Y-30790000D03*
X80000000Y-41270000D03*
X79895373Y-35404627D03*
X77760000Y-30680000D03*
%TO.N,Net-(D2-Pad1)*%
X70525000Y-41820000D03*
X73930000Y-33759998D03*
%TO.N,ENW*%
X78360000Y-34410000D03*
%TO.N,ENV*%
X75810750Y-32817905D03*
%TO.N,ENU*%
X74759980Y-31880011D03*
%TO.N,MOTOR3*%
X79130000Y-36020000D03*
X79140000Y-36630000D03*
%TO.N,MOTOR1*%
X74190000Y-36010000D03*
X73920000Y-36570000D03*
%TD*%
D15*
%TO.N,STBY_RST*%
X77067375Y-32151065D02*
X77067375Y-31952625D01*
X77067375Y-31952625D02*
X77610000Y-31410000D01*
X77610000Y-31410000D02*
X79030000Y-31410000D01*
X79209999Y-31230001D02*
X80560001Y-31230001D01*
X79030000Y-31410000D02*
X79209999Y-31230001D01*
X80560001Y-33317107D02*
X80982894Y-33740000D01*
X80982894Y-33740000D02*
X81690000Y-33740000D01*
X80560001Y-31230001D02*
X80560001Y-33317107D01*
%TD*%
D16*
%TO.N,GNDPWR*%
G36*
X72680934Y-30880000D02*
G01*
X72689178Y-30963707D01*
X72713595Y-31044196D01*
X72753245Y-31118376D01*
X72806605Y-31183395D01*
X72871624Y-31236755D01*
X72945804Y-31276405D01*
X73026293Y-31300822D01*
X73110000Y-31309066D01*
X74305893Y-31309066D01*
X74296544Y-31315313D01*
X74195282Y-31416575D01*
X74115721Y-31535647D01*
X74060918Y-31667953D01*
X74032980Y-31808408D01*
X74032980Y-31951614D01*
X74060918Y-32092069D01*
X74115721Y-32224375D01*
X74195282Y-32343447D01*
X74296544Y-32444709D01*
X74415616Y-32524270D01*
X74547922Y-32579073D01*
X74688377Y-32607011D01*
X74831583Y-32607011D01*
X74972038Y-32579073D01*
X75104344Y-32524270D01*
X75161220Y-32486267D01*
X75111688Y-32605847D01*
X75083750Y-32746302D01*
X75083750Y-32889508D01*
X75111688Y-33029963D01*
X75166491Y-33162269D01*
X75246052Y-33281341D01*
X75347314Y-33382603D01*
X75466386Y-33462164D01*
X75598692Y-33516967D01*
X75739147Y-33544905D01*
X75882353Y-33544905D01*
X76022808Y-33516967D01*
X76155114Y-33462164D01*
X76274186Y-33382603D01*
X76375448Y-33281341D01*
X76455009Y-33162269D01*
X76509812Y-33029963D01*
X76537750Y-32889508D01*
X76537750Y-32746302D01*
X76513732Y-32625556D01*
X76603939Y-32715763D01*
X76723011Y-32795324D01*
X76855317Y-32850127D01*
X76995772Y-32878065D01*
X77138978Y-32878065D01*
X77279433Y-32850127D01*
X77411739Y-32795324D01*
X77530811Y-32715763D01*
X77632073Y-32614501D01*
X77711634Y-32495429D01*
X77766437Y-32363123D01*
X77794375Y-32222668D01*
X77794375Y-32079462D01*
X77788098Y-32047903D01*
X77849001Y-31987000D01*
X79001669Y-31987000D01*
X79030000Y-31989790D01*
X79058331Y-31987000D01*
X79058336Y-31987000D01*
X79088045Y-31984074D01*
X79143111Y-31978651D01*
X79187770Y-31965103D01*
X79251876Y-31945657D01*
X79352115Y-31892079D01*
X79439974Y-31819974D01*
X79450621Y-31807001D01*
X79983001Y-31807001D01*
X79983002Y-33288766D01*
X79980211Y-33317107D01*
X79991350Y-33430218D01*
X80024345Y-33538983D01*
X80077923Y-33639222D01*
X80085701Y-33648699D01*
X80131964Y-33705071D01*
X80131967Y-33705074D01*
X80150028Y-33727081D01*
X80172034Y-33745141D01*
X80554859Y-34127967D01*
X80572920Y-34149974D01*
X80594927Y-34168035D01*
X80594929Y-34168037D01*
X80608408Y-34179099D01*
X80660779Y-34222079D01*
X80761018Y-34275657D01*
X80805676Y-34289204D01*
X80869782Y-34308651D01*
X80930865Y-34314666D01*
X80954558Y-34317000D01*
X80954562Y-34317000D01*
X80961074Y-34317641D01*
X80969952Y-34330928D01*
X81014024Y-34375000D01*
X80969952Y-34419072D01*
X80868504Y-34570901D01*
X80798624Y-34739604D01*
X80763000Y-34918699D01*
X80763000Y-35101301D01*
X80798624Y-35280396D01*
X80868504Y-35449099D01*
X80969952Y-35600928D01*
X81014024Y-35645000D01*
X80969952Y-35689072D01*
X80868504Y-35840901D01*
X80798624Y-36009604D01*
X80763000Y-36188699D01*
X80763000Y-36371301D01*
X80798624Y-36550396D01*
X80868504Y-36719099D01*
X80969952Y-36870928D01*
X81014024Y-36915000D01*
X80969952Y-36959072D01*
X80868504Y-37110901D01*
X80798624Y-37279604D01*
X80763000Y-37458699D01*
X80763000Y-37641301D01*
X80798624Y-37820396D01*
X80868504Y-37989099D01*
X80969952Y-38140928D01*
X81014024Y-38185000D01*
X80969952Y-38229072D01*
X80868504Y-38380901D01*
X80798624Y-38549604D01*
X80763000Y-38728699D01*
X80763000Y-38816063D01*
X80637942Y-38840938D01*
X80505636Y-38895741D01*
X80386564Y-38975302D01*
X80285302Y-39076564D01*
X80205741Y-39195636D01*
X80150938Y-39327942D01*
X80123000Y-39468397D01*
X80123000Y-39611603D01*
X80150938Y-39752058D01*
X80205741Y-39884364D01*
X80285302Y-40003436D01*
X80386564Y-40104698D01*
X80505636Y-40184259D01*
X80637942Y-40239062D01*
X80778397Y-40267000D01*
X80780046Y-40267000D01*
X80798624Y-40360396D01*
X80868504Y-40529099D01*
X80969952Y-40680928D01*
X81099072Y-40810048D01*
X81250901Y-40911496D01*
X81419604Y-40981376D01*
X81598699Y-41017000D01*
X81781301Y-41017000D01*
X81960396Y-40981376D01*
X82048000Y-40945089D01*
X82048000Y-41477891D01*
X82016392Y-41800254D01*
X81929194Y-42089071D01*
X81787556Y-42355451D01*
X81596876Y-42589248D01*
X81364417Y-42781554D01*
X81099036Y-42925045D01*
X80810833Y-43014259D01*
X80489807Y-43048000D01*
X80186942Y-43048000D01*
X80267926Y-42852487D01*
X80317000Y-42605774D01*
X80317000Y-42354226D01*
X80267926Y-42107513D01*
X80210690Y-41969334D01*
X80212058Y-41969062D01*
X80344364Y-41914259D01*
X80463436Y-41834698D01*
X80564698Y-41733436D01*
X80644259Y-41614364D01*
X80699062Y-41482058D01*
X80727000Y-41341603D01*
X80727000Y-41198397D01*
X80699062Y-41057942D01*
X80644259Y-40925636D01*
X80564698Y-40806564D01*
X80463436Y-40705302D01*
X80344364Y-40625741D01*
X80212058Y-40570938D01*
X80071603Y-40543000D01*
X79928397Y-40543000D01*
X79787942Y-40570938D01*
X79655636Y-40625741D01*
X79536564Y-40705302D01*
X79435302Y-40806564D01*
X79355741Y-40925636D01*
X79300938Y-41057942D01*
X79273000Y-41198397D01*
X79273000Y-41224328D01*
X79165774Y-41203000D01*
X78914226Y-41203000D01*
X78765831Y-41232518D01*
X78739062Y-41097942D01*
X78684259Y-40965636D01*
X78604698Y-40846564D01*
X78503436Y-40745302D01*
X78418120Y-40688296D01*
X78453436Y-40664698D01*
X78554698Y-40563436D01*
X78634259Y-40444364D01*
X78689062Y-40312058D01*
X78717000Y-40171603D01*
X78717000Y-40028397D01*
X78689062Y-39887942D01*
X78634259Y-39755636D01*
X78554698Y-39636564D01*
X78453436Y-39535302D01*
X78334364Y-39455741D01*
X78202058Y-39400938D01*
X78061603Y-39373000D01*
X77918397Y-39373000D01*
X77777942Y-39400938D01*
X77645636Y-39455741D01*
X77526564Y-39535302D01*
X77425302Y-39636564D01*
X77345741Y-39755636D01*
X77290938Y-39887942D01*
X77263000Y-40028397D01*
X77263000Y-40171603D01*
X77290938Y-40312058D01*
X77345741Y-40444364D01*
X77425302Y-40563436D01*
X77526564Y-40664698D01*
X77611880Y-40721704D01*
X77576564Y-40745302D01*
X77475302Y-40846564D01*
X77395741Y-40965636D01*
X77340938Y-41097942D01*
X77313000Y-41238397D01*
X77313000Y-41381603D01*
X77339182Y-41513231D01*
X77314040Y-41488089D01*
X77104886Y-41348337D01*
X76872487Y-41252074D01*
X76625774Y-41203000D01*
X76374226Y-41203000D01*
X76127513Y-41252074D01*
X75895114Y-41348337D01*
X75685960Y-41488089D01*
X75508089Y-41665960D01*
X75368337Y-41875114D01*
X75272074Y-42107513D01*
X75239066Y-42273456D01*
X75239066Y-41630000D01*
X75230822Y-41546293D01*
X75206405Y-41465804D01*
X75166755Y-41391624D01*
X75113395Y-41326605D01*
X75048376Y-41273245D01*
X74974196Y-41233595D01*
X74893707Y-41209178D01*
X74810000Y-41200934D01*
X73110000Y-41200934D01*
X73026293Y-41209178D01*
X72973391Y-41225226D01*
X72884364Y-41165741D01*
X72752058Y-41110938D01*
X72611603Y-41083000D01*
X72468397Y-41083000D01*
X72327942Y-41110938D01*
X72195636Y-41165741D01*
X72076564Y-41245302D01*
X71975302Y-41346564D01*
X71895741Y-41465636D01*
X71840938Y-41597942D01*
X71813000Y-41738397D01*
X71813000Y-41881603D01*
X71840938Y-42022058D01*
X71895741Y-42154364D01*
X71975302Y-42273436D01*
X72076564Y-42374698D01*
X72195636Y-42454259D01*
X72327942Y-42509062D01*
X72468397Y-42537000D01*
X72611603Y-42537000D01*
X72680934Y-42523209D01*
X72680934Y-43048000D01*
X70922109Y-43048000D01*
X70599746Y-43016392D01*
X70310929Y-42929194D01*
X70044549Y-42787556D01*
X69810752Y-42596876D01*
X69618446Y-42364417D01*
X69474955Y-42099036D01*
X69385741Y-41810833D01*
X69379179Y-41748397D01*
X69798000Y-41748397D01*
X69798000Y-41891603D01*
X69825938Y-42032058D01*
X69880741Y-42164364D01*
X69960302Y-42283436D01*
X70061564Y-42384698D01*
X70180636Y-42464259D01*
X70312942Y-42519062D01*
X70453397Y-42547000D01*
X70596603Y-42547000D01*
X70737058Y-42519062D01*
X70869364Y-42464259D01*
X70988436Y-42384698D01*
X71089698Y-42283436D01*
X71169259Y-42164364D01*
X71224062Y-42032058D01*
X71252000Y-41891603D01*
X71252000Y-41748397D01*
X71224062Y-41607942D01*
X71169259Y-41475636D01*
X71089698Y-41356564D01*
X70988436Y-41255302D01*
X70869364Y-41175741D01*
X70737058Y-41120938D01*
X70596603Y-41093000D01*
X70453397Y-41093000D01*
X70312942Y-41120938D01*
X70180636Y-41175741D01*
X70061564Y-41255302D01*
X69960302Y-41356564D01*
X69880741Y-41475636D01*
X69825938Y-41607942D01*
X69798000Y-41748397D01*
X69379179Y-41748397D01*
X69352000Y-41489807D01*
X69352000Y-39441387D01*
X72253000Y-39441387D01*
X72253000Y-39584593D01*
X72280938Y-39725048D01*
X72335741Y-39857354D01*
X72415302Y-39976426D01*
X72516564Y-40077688D01*
X72635636Y-40157249D01*
X72767942Y-40212052D01*
X72908397Y-40239990D01*
X73051603Y-40239990D01*
X73192058Y-40212052D01*
X73324364Y-40157249D01*
X73443436Y-40077688D01*
X73544698Y-39976426D01*
X73624259Y-39857354D01*
X73679062Y-39725048D01*
X73707000Y-39584593D01*
X73707000Y-39441387D01*
X73679062Y-39300932D01*
X73649017Y-39228397D01*
X74703000Y-39228397D01*
X74703000Y-39371603D01*
X74730938Y-39512058D01*
X74785741Y-39644364D01*
X74865302Y-39763436D01*
X74966564Y-39864698D01*
X75085636Y-39944259D01*
X75217942Y-39999062D01*
X75358397Y-40027000D01*
X75501603Y-40027000D01*
X75642058Y-39999062D01*
X75774364Y-39944259D01*
X75893436Y-39864698D01*
X75994698Y-39763436D01*
X76074259Y-39644364D01*
X76129062Y-39512058D01*
X76157000Y-39371603D01*
X76157000Y-39228397D01*
X76129062Y-39087942D01*
X76074259Y-38955636D01*
X75994698Y-38836564D01*
X75893436Y-38735302D01*
X75774364Y-38655741D01*
X75642058Y-38600938D01*
X75501603Y-38573000D01*
X75358397Y-38573000D01*
X75217942Y-38600938D01*
X75085636Y-38655741D01*
X74966564Y-38735302D01*
X74865302Y-38836564D01*
X74785741Y-38955636D01*
X74730938Y-39087942D01*
X74703000Y-39228397D01*
X73649017Y-39228397D01*
X73624259Y-39168626D01*
X73544698Y-39049554D01*
X73443436Y-38948292D01*
X73324364Y-38868731D01*
X73192058Y-38813928D01*
X73051603Y-38785990D01*
X72908397Y-38785990D01*
X72767942Y-38813928D01*
X72635636Y-38868731D01*
X72516564Y-38948292D01*
X72415302Y-39049554D01*
X72335741Y-39168626D01*
X72280938Y-39300932D01*
X72253000Y-39441387D01*
X69352000Y-39441387D01*
X69352000Y-38659066D01*
X70850000Y-38659066D01*
X70933707Y-38650822D01*
X71014196Y-38626405D01*
X71088376Y-38586755D01*
X71153395Y-38533395D01*
X71206755Y-38468376D01*
X71246405Y-38394196D01*
X71270822Y-38313707D01*
X71279066Y-38230000D01*
X71279066Y-36530000D01*
X71275954Y-36498397D01*
X73193000Y-36498397D01*
X73193000Y-36641603D01*
X73220938Y-36782058D01*
X73275741Y-36914364D01*
X73355302Y-37033436D01*
X73456564Y-37134698D01*
X73575636Y-37214259D01*
X73707942Y-37269062D01*
X73848397Y-37297000D01*
X73991603Y-37297000D01*
X74132058Y-37269062D01*
X74264364Y-37214259D01*
X74383436Y-37134698D01*
X74484698Y-37033436D01*
X74564259Y-36914364D01*
X74619062Y-36782058D01*
X74647000Y-36641603D01*
X74647000Y-36578998D01*
X74653436Y-36574698D01*
X74754698Y-36473436D01*
X74834259Y-36354364D01*
X74889062Y-36222058D01*
X74917000Y-36081603D01*
X74917000Y-35948397D01*
X78403000Y-35948397D01*
X78403000Y-36091603D01*
X78430938Y-36232058D01*
X78474436Y-36337071D01*
X78440938Y-36417942D01*
X78413000Y-36558397D01*
X78413000Y-36701603D01*
X78440938Y-36842058D01*
X78495741Y-36974364D01*
X78575302Y-37093436D01*
X78676564Y-37194698D01*
X78795636Y-37274259D01*
X78927942Y-37329062D01*
X79068397Y-37357000D01*
X79211603Y-37357000D01*
X79352058Y-37329062D01*
X79484364Y-37274259D01*
X79603436Y-37194698D01*
X79704698Y-37093436D01*
X79784259Y-36974364D01*
X79839062Y-36842058D01*
X79867000Y-36701603D01*
X79867000Y-36558397D01*
X79839062Y-36417942D01*
X79795564Y-36312929D01*
X79829062Y-36232058D01*
X79849039Y-36131627D01*
X79966976Y-36131627D01*
X80107431Y-36103689D01*
X80239737Y-36048886D01*
X80358809Y-35969325D01*
X80460071Y-35868063D01*
X80539632Y-35748991D01*
X80594435Y-35616685D01*
X80622373Y-35476230D01*
X80622373Y-35333024D01*
X80594435Y-35192569D01*
X80539632Y-35060263D01*
X80460071Y-34941191D01*
X80358809Y-34839929D01*
X80239737Y-34760368D01*
X80107431Y-34705565D01*
X79966976Y-34677627D01*
X79823770Y-34677627D01*
X79683315Y-34705565D01*
X79551009Y-34760368D01*
X79431937Y-34839929D01*
X79330675Y-34941191D01*
X79251114Y-35060263D01*
X79196311Y-35192569D01*
X79176334Y-35293000D01*
X79058397Y-35293000D01*
X78917942Y-35320938D01*
X78785636Y-35375741D01*
X78666564Y-35455302D01*
X78565302Y-35556564D01*
X78485741Y-35675636D01*
X78430938Y-35807942D01*
X78403000Y-35948397D01*
X74917000Y-35948397D01*
X74917000Y-35938397D01*
X74889062Y-35797942D01*
X74834259Y-35665636D01*
X74754698Y-35546564D01*
X74653436Y-35445302D01*
X74534364Y-35365741D01*
X74402058Y-35310938D01*
X74261603Y-35283000D01*
X74118397Y-35283000D01*
X73977942Y-35310938D01*
X73845636Y-35365741D01*
X73726564Y-35445302D01*
X73625302Y-35546564D01*
X73545741Y-35665636D01*
X73490938Y-35797942D01*
X73463000Y-35938397D01*
X73463000Y-36001002D01*
X73456564Y-36005302D01*
X73355302Y-36106564D01*
X73275741Y-36225636D01*
X73220938Y-36357942D01*
X73193000Y-36498397D01*
X71275954Y-36498397D01*
X71270822Y-36446293D01*
X71246405Y-36365804D01*
X71206755Y-36291624D01*
X71153395Y-36226605D01*
X71088376Y-36173245D01*
X71014196Y-36133595D01*
X70933707Y-36109178D01*
X70850000Y-36100934D01*
X69352000Y-36100934D01*
X69352000Y-35739066D01*
X70850000Y-35739066D01*
X70933707Y-35730822D01*
X71014196Y-35706405D01*
X71088376Y-35666755D01*
X71153395Y-35613395D01*
X71206755Y-35548376D01*
X71246405Y-35474196D01*
X71270822Y-35393707D01*
X71279066Y-35310000D01*
X71279066Y-33688395D01*
X73203000Y-33688395D01*
X73203000Y-33831601D01*
X73230938Y-33972056D01*
X73285741Y-34104362D01*
X73365302Y-34223434D01*
X73466564Y-34324696D01*
X73585636Y-34404257D01*
X73717942Y-34459060D01*
X73858397Y-34486998D01*
X74001603Y-34486998D01*
X74142058Y-34459060D01*
X74274364Y-34404257D01*
X74393436Y-34324696D01*
X74494698Y-34223434D01*
X74574259Y-34104362D01*
X74629062Y-33972056D01*
X74657000Y-33831601D01*
X74657000Y-33708397D01*
X77063000Y-33708397D01*
X77063000Y-33851603D01*
X77090938Y-33992058D01*
X77145741Y-34124364D01*
X77225302Y-34243436D01*
X77326564Y-34344698D01*
X77445636Y-34424259D01*
X77577942Y-34479062D01*
X77634742Y-34490360D01*
X77660938Y-34622058D01*
X77715741Y-34754364D01*
X77795302Y-34873436D01*
X77896564Y-34974698D01*
X78015636Y-35054259D01*
X78147942Y-35109062D01*
X78288397Y-35137000D01*
X78431603Y-35137000D01*
X78572058Y-35109062D01*
X78704364Y-35054259D01*
X78823436Y-34974698D01*
X78924698Y-34873436D01*
X79004259Y-34754364D01*
X79059062Y-34622058D01*
X79087000Y-34481603D01*
X79087000Y-34338397D01*
X79059062Y-34197942D01*
X79004259Y-34065636D01*
X78924698Y-33946564D01*
X78823436Y-33845302D01*
X78704364Y-33765741D01*
X78572058Y-33710938D01*
X78515258Y-33699640D01*
X78489062Y-33567942D01*
X78434259Y-33435636D01*
X78354698Y-33316564D01*
X78253436Y-33215302D01*
X78134364Y-33135741D01*
X78002058Y-33080938D01*
X77861603Y-33053000D01*
X77718397Y-33053000D01*
X77577942Y-33080938D01*
X77445636Y-33135741D01*
X77326564Y-33215302D01*
X77225302Y-33316564D01*
X77145741Y-33435636D01*
X77090938Y-33567942D01*
X77063000Y-33708397D01*
X74657000Y-33708397D01*
X74657000Y-33688395D01*
X74629062Y-33547940D01*
X74574259Y-33415634D01*
X74494698Y-33296562D01*
X74393436Y-33195300D01*
X74274364Y-33115739D01*
X74142058Y-33060936D01*
X74001603Y-33032998D01*
X73858397Y-33032998D01*
X73717942Y-33060936D01*
X73585636Y-33115739D01*
X73466564Y-33195300D01*
X73365302Y-33296562D01*
X73285741Y-33415634D01*
X73230938Y-33547940D01*
X73203000Y-33688395D01*
X71279066Y-33688395D01*
X71279066Y-33610000D01*
X71270822Y-33526293D01*
X71246405Y-33445804D01*
X71206755Y-33371624D01*
X71153395Y-33306605D01*
X71088376Y-33253245D01*
X71014196Y-33213595D01*
X70933707Y-33189178D01*
X70850000Y-33180934D01*
X69352000Y-33180934D01*
X69352000Y-31022109D01*
X69381779Y-30718397D01*
X70253000Y-30718397D01*
X70253000Y-30861603D01*
X70280938Y-31002058D01*
X70335741Y-31134364D01*
X70415302Y-31253436D01*
X70516564Y-31354698D01*
X70635636Y-31434259D01*
X70767942Y-31489062D01*
X70908397Y-31517000D01*
X71051603Y-31517000D01*
X71192058Y-31489062D01*
X71324364Y-31434259D01*
X71443436Y-31354698D01*
X71544698Y-31253436D01*
X71624259Y-31134364D01*
X71679062Y-31002058D01*
X71707000Y-30861603D01*
X71707000Y-30718397D01*
X71679062Y-30577942D01*
X71624259Y-30445636D01*
X71544698Y-30326564D01*
X71443436Y-30225302D01*
X71324364Y-30145741D01*
X71192058Y-30090938D01*
X71051603Y-30063000D01*
X70908397Y-30063000D01*
X70767942Y-30090938D01*
X70635636Y-30145741D01*
X70516564Y-30225302D01*
X70415302Y-30326564D01*
X70335741Y-30445636D01*
X70280938Y-30577942D01*
X70253000Y-30718397D01*
X69381779Y-30718397D01*
X69383609Y-30699742D01*
X69470806Y-30410931D01*
X69612444Y-30144549D01*
X69803124Y-29910753D01*
X70035583Y-29718446D01*
X70300964Y-29574955D01*
X70589167Y-29485741D01*
X70910193Y-29452000D01*
X72680934Y-29452000D01*
X72680934Y-30880000D01*
G37*
X72680934Y-30880000D02*
X72689178Y-30963707D01*
X72713595Y-31044196D01*
X72753245Y-31118376D01*
X72806605Y-31183395D01*
X72871624Y-31236755D01*
X72945804Y-31276405D01*
X73026293Y-31300822D01*
X73110000Y-31309066D01*
X74305893Y-31309066D01*
X74296544Y-31315313D01*
X74195282Y-31416575D01*
X74115721Y-31535647D01*
X74060918Y-31667953D01*
X74032980Y-31808408D01*
X74032980Y-31951614D01*
X74060918Y-32092069D01*
X74115721Y-32224375D01*
X74195282Y-32343447D01*
X74296544Y-32444709D01*
X74415616Y-32524270D01*
X74547922Y-32579073D01*
X74688377Y-32607011D01*
X74831583Y-32607011D01*
X74972038Y-32579073D01*
X75104344Y-32524270D01*
X75161220Y-32486267D01*
X75111688Y-32605847D01*
X75083750Y-32746302D01*
X75083750Y-32889508D01*
X75111688Y-33029963D01*
X75166491Y-33162269D01*
X75246052Y-33281341D01*
X75347314Y-33382603D01*
X75466386Y-33462164D01*
X75598692Y-33516967D01*
X75739147Y-33544905D01*
X75882353Y-33544905D01*
X76022808Y-33516967D01*
X76155114Y-33462164D01*
X76274186Y-33382603D01*
X76375448Y-33281341D01*
X76455009Y-33162269D01*
X76509812Y-33029963D01*
X76537750Y-32889508D01*
X76537750Y-32746302D01*
X76513732Y-32625556D01*
X76603939Y-32715763D01*
X76723011Y-32795324D01*
X76855317Y-32850127D01*
X76995772Y-32878065D01*
X77138978Y-32878065D01*
X77279433Y-32850127D01*
X77411739Y-32795324D01*
X77530811Y-32715763D01*
X77632073Y-32614501D01*
X77711634Y-32495429D01*
X77766437Y-32363123D01*
X77794375Y-32222668D01*
X77794375Y-32079462D01*
X77788098Y-32047903D01*
X77849001Y-31987000D01*
X79001669Y-31987000D01*
X79030000Y-31989790D01*
X79058331Y-31987000D01*
X79058336Y-31987000D01*
X79088045Y-31984074D01*
X79143111Y-31978651D01*
X79187770Y-31965103D01*
X79251876Y-31945657D01*
X79352115Y-31892079D01*
X79439974Y-31819974D01*
X79450621Y-31807001D01*
X79983001Y-31807001D01*
X79983002Y-33288766D01*
X79980211Y-33317107D01*
X79991350Y-33430218D01*
X80024345Y-33538983D01*
X80077923Y-33639222D01*
X80085701Y-33648699D01*
X80131964Y-33705071D01*
X80131967Y-33705074D01*
X80150028Y-33727081D01*
X80172034Y-33745141D01*
X80554859Y-34127967D01*
X80572920Y-34149974D01*
X80594927Y-34168035D01*
X80594929Y-34168037D01*
X80608408Y-34179099D01*
X80660779Y-34222079D01*
X80761018Y-34275657D01*
X80805676Y-34289204D01*
X80869782Y-34308651D01*
X80930865Y-34314666D01*
X80954558Y-34317000D01*
X80954562Y-34317000D01*
X80961074Y-34317641D01*
X80969952Y-34330928D01*
X81014024Y-34375000D01*
X80969952Y-34419072D01*
X80868504Y-34570901D01*
X80798624Y-34739604D01*
X80763000Y-34918699D01*
X80763000Y-35101301D01*
X80798624Y-35280396D01*
X80868504Y-35449099D01*
X80969952Y-35600928D01*
X81014024Y-35645000D01*
X80969952Y-35689072D01*
X80868504Y-35840901D01*
X80798624Y-36009604D01*
X80763000Y-36188699D01*
X80763000Y-36371301D01*
X80798624Y-36550396D01*
X80868504Y-36719099D01*
X80969952Y-36870928D01*
X81014024Y-36915000D01*
X80969952Y-36959072D01*
X80868504Y-37110901D01*
X80798624Y-37279604D01*
X80763000Y-37458699D01*
X80763000Y-37641301D01*
X80798624Y-37820396D01*
X80868504Y-37989099D01*
X80969952Y-38140928D01*
X81014024Y-38185000D01*
X80969952Y-38229072D01*
X80868504Y-38380901D01*
X80798624Y-38549604D01*
X80763000Y-38728699D01*
X80763000Y-38816063D01*
X80637942Y-38840938D01*
X80505636Y-38895741D01*
X80386564Y-38975302D01*
X80285302Y-39076564D01*
X80205741Y-39195636D01*
X80150938Y-39327942D01*
X80123000Y-39468397D01*
X80123000Y-39611603D01*
X80150938Y-39752058D01*
X80205741Y-39884364D01*
X80285302Y-40003436D01*
X80386564Y-40104698D01*
X80505636Y-40184259D01*
X80637942Y-40239062D01*
X80778397Y-40267000D01*
X80780046Y-40267000D01*
X80798624Y-40360396D01*
X80868504Y-40529099D01*
X80969952Y-40680928D01*
X81099072Y-40810048D01*
X81250901Y-40911496D01*
X81419604Y-40981376D01*
X81598699Y-41017000D01*
X81781301Y-41017000D01*
X81960396Y-40981376D01*
X82048000Y-40945089D01*
X82048000Y-41477891D01*
X82016392Y-41800254D01*
X81929194Y-42089071D01*
X81787556Y-42355451D01*
X81596876Y-42589248D01*
X81364417Y-42781554D01*
X81099036Y-42925045D01*
X80810833Y-43014259D01*
X80489807Y-43048000D01*
X80186942Y-43048000D01*
X80267926Y-42852487D01*
X80317000Y-42605774D01*
X80317000Y-42354226D01*
X80267926Y-42107513D01*
X80210690Y-41969334D01*
X80212058Y-41969062D01*
X80344364Y-41914259D01*
X80463436Y-41834698D01*
X80564698Y-41733436D01*
X80644259Y-41614364D01*
X80699062Y-41482058D01*
X80727000Y-41341603D01*
X80727000Y-41198397D01*
X80699062Y-41057942D01*
X80644259Y-40925636D01*
X80564698Y-40806564D01*
X80463436Y-40705302D01*
X80344364Y-40625741D01*
X80212058Y-40570938D01*
X80071603Y-40543000D01*
X79928397Y-40543000D01*
X79787942Y-40570938D01*
X79655636Y-40625741D01*
X79536564Y-40705302D01*
X79435302Y-40806564D01*
X79355741Y-40925636D01*
X79300938Y-41057942D01*
X79273000Y-41198397D01*
X79273000Y-41224328D01*
X79165774Y-41203000D01*
X78914226Y-41203000D01*
X78765831Y-41232518D01*
X78739062Y-41097942D01*
X78684259Y-40965636D01*
X78604698Y-40846564D01*
X78503436Y-40745302D01*
X78418120Y-40688296D01*
X78453436Y-40664698D01*
X78554698Y-40563436D01*
X78634259Y-40444364D01*
X78689062Y-40312058D01*
X78717000Y-40171603D01*
X78717000Y-40028397D01*
X78689062Y-39887942D01*
X78634259Y-39755636D01*
X78554698Y-39636564D01*
X78453436Y-39535302D01*
X78334364Y-39455741D01*
X78202058Y-39400938D01*
X78061603Y-39373000D01*
X77918397Y-39373000D01*
X77777942Y-39400938D01*
X77645636Y-39455741D01*
X77526564Y-39535302D01*
X77425302Y-39636564D01*
X77345741Y-39755636D01*
X77290938Y-39887942D01*
X77263000Y-40028397D01*
X77263000Y-40171603D01*
X77290938Y-40312058D01*
X77345741Y-40444364D01*
X77425302Y-40563436D01*
X77526564Y-40664698D01*
X77611880Y-40721704D01*
X77576564Y-40745302D01*
X77475302Y-40846564D01*
X77395741Y-40965636D01*
X77340938Y-41097942D01*
X77313000Y-41238397D01*
X77313000Y-41381603D01*
X77339182Y-41513231D01*
X77314040Y-41488089D01*
X77104886Y-41348337D01*
X76872487Y-41252074D01*
X76625774Y-41203000D01*
X76374226Y-41203000D01*
X76127513Y-41252074D01*
X75895114Y-41348337D01*
X75685960Y-41488089D01*
X75508089Y-41665960D01*
X75368337Y-41875114D01*
X75272074Y-42107513D01*
X75239066Y-42273456D01*
X75239066Y-41630000D01*
X75230822Y-41546293D01*
X75206405Y-41465804D01*
X75166755Y-41391624D01*
X75113395Y-41326605D01*
X75048376Y-41273245D01*
X74974196Y-41233595D01*
X74893707Y-41209178D01*
X74810000Y-41200934D01*
X73110000Y-41200934D01*
X73026293Y-41209178D01*
X72973391Y-41225226D01*
X72884364Y-41165741D01*
X72752058Y-41110938D01*
X72611603Y-41083000D01*
X72468397Y-41083000D01*
X72327942Y-41110938D01*
X72195636Y-41165741D01*
X72076564Y-41245302D01*
X71975302Y-41346564D01*
X71895741Y-41465636D01*
X71840938Y-41597942D01*
X71813000Y-41738397D01*
X71813000Y-41881603D01*
X71840938Y-42022058D01*
X71895741Y-42154364D01*
X71975302Y-42273436D01*
X72076564Y-42374698D01*
X72195636Y-42454259D01*
X72327942Y-42509062D01*
X72468397Y-42537000D01*
X72611603Y-42537000D01*
X72680934Y-42523209D01*
X72680934Y-43048000D01*
X70922109Y-43048000D01*
X70599746Y-43016392D01*
X70310929Y-42929194D01*
X70044549Y-42787556D01*
X69810752Y-42596876D01*
X69618446Y-42364417D01*
X69474955Y-42099036D01*
X69385741Y-41810833D01*
X69379179Y-41748397D01*
X69798000Y-41748397D01*
X69798000Y-41891603D01*
X69825938Y-42032058D01*
X69880741Y-42164364D01*
X69960302Y-42283436D01*
X70061564Y-42384698D01*
X70180636Y-42464259D01*
X70312942Y-42519062D01*
X70453397Y-42547000D01*
X70596603Y-42547000D01*
X70737058Y-42519062D01*
X70869364Y-42464259D01*
X70988436Y-42384698D01*
X71089698Y-42283436D01*
X71169259Y-42164364D01*
X71224062Y-42032058D01*
X71252000Y-41891603D01*
X71252000Y-41748397D01*
X71224062Y-41607942D01*
X71169259Y-41475636D01*
X71089698Y-41356564D01*
X70988436Y-41255302D01*
X70869364Y-41175741D01*
X70737058Y-41120938D01*
X70596603Y-41093000D01*
X70453397Y-41093000D01*
X70312942Y-41120938D01*
X70180636Y-41175741D01*
X70061564Y-41255302D01*
X69960302Y-41356564D01*
X69880741Y-41475636D01*
X69825938Y-41607942D01*
X69798000Y-41748397D01*
X69379179Y-41748397D01*
X69352000Y-41489807D01*
X69352000Y-39441387D01*
X72253000Y-39441387D01*
X72253000Y-39584593D01*
X72280938Y-39725048D01*
X72335741Y-39857354D01*
X72415302Y-39976426D01*
X72516564Y-40077688D01*
X72635636Y-40157249D01*
X72767942Y-40212052D01*
X72908397Y-40239990D01*
X73051603Y-40239990D01*
X73192058Y-40212052D01*
X73324364Y-40157249D01*
X73443436Y-40077688D01*
X73544698Y-39976426D01*
X73624259Y-39857354D01*
X73679062Y-39725048D01*
X73707000Y-39584593D01*
X73707000Y-39441387D01*
X73679062Y-39300932D01*
X73649017Y-39228397D01*
X74703000Y-39228397D01*
X74703000Y-39371603D01*
X74730938Y-39512058D01*
X74785741Y-39644364D01*
X74865302Y-39763436D01*
X74966564Y-39864698D01*
X75085636Y-39944259D01*
X75217942Y-39999062D01*
X75358397Y-40027000D01*
X75501603Y-40027000D01*
X75642058Y-39999062D01*
X75774364Y-39944259D01*
X75893436Y-39864698D01*
X75994698Y-39763436D01*
X76074259Y-39644364D01*
X76129062Y-39512058D01*
X76157000Y-39371603D01*
X76157000Y-39228397D01*
X76129062Y-39087942D01*
X76074259Y-38955636D01*
X75994698Y-38836564D01*
X75893436Y-38735302D01*
X75774364Y-38655741D01*
X75642058Y-38600938D01*
X75501603Y-38573000D01*
X75358397Y-38573000D01*
X75217942Y-38600938D01*
X75085636Y-38655741D01*
X74966564Y-38735302D01*
X74865302Y-38836564D01*
X74785741Y-38955636D01*
X74730938Y-39087942D01*
X74703000Y-39228397D01*
X73649017Y-39228397D01*
X73624259Y-39168626D01*
X73544698Y-39049554D01*
X73443436Y-38948292D01*
X73324364Y-38868731D01*
X73192058Y-38813928D01*
X73051603Y-38785990D01*
X72908397Y-38785990D01*
X72767942Y-38813928D01*
X72635636Y-38868731D01*
X72516564Y-38948292D01*
X72415302Y-39049554D01*
X72335741Y-39168626D01*
X72280938Y-39300932D01*
X72253000Y-39441387D01*
X69352000Y-39441387D01*
X69352000Y-38659066D01*
X70850000Y-38659066D01*
X70933707Y-38650822D01*
X71014196Y-38626405D01*
X71088376Y-38586755D01*
X71153395Y-38533395D01*
X71206755Y-38468376D01*
X71246405Y-38394196D01*
X71270822Y-38313707D01*
X71279066Y-38230000D01*
X71279066Y-36530000D01*
X71275954Y-36498397D01*
X73193000Y-36498397D01*
X73193000Y-36641603D01*
X73220938Y-36782058D01*
X73275741Y-36914364D01*
X73355302Y-37033436D01*
X73456564Y-37134698D01*
X73575636Y-37214259D01*
X73707942Y-37269062D01*
X73848397Y-37297000D01*
X73991603Y-37297000D01*
X74132058Y-37269062D01*
X74264364Y-37214259D01*
X74383436Y-37134698D01*
X74484698Y-37033436D01*
X74564259Y-36914364D01*
X74619062Y-36782058D01*
X74647000Y-36641603D01*
X74647000Y-36578998D01*
X74653436Y-36574698D01*
X74754698Y-36473436D01*
X74834259Y-36354364D01*
X74889062Y-36222058D01*
X74917000Y-36081603D01*
X74917000Y-35948397D01*
X78403000Y-35948397D01*
X78403000Y-36091603D01*
X78430938Y-36232058D01*
X78474436Y-36337071D01*
X78440938Y-36417942D01*
X78413000Y-36558397D01*
X78413000Y-36701603D01*
X78440938Y-36842058D01*
X78495741Y-36974364D01*
X78575302Y-37093436D01*
X78676564Y-37194698D01*
X78795636Y-37274259D01*
X78927942Y-37329062D01*
X79068397Y-37357000D01*
X79211603Y-37357000D01*
X79352058Y-37329062D01*
X79484364Y-37274259D01*
X79603436Y-37194698D01*
X79704698Y-37093436D01*
X79784259Y-36974364D01*
X79839062Y-36842058D01*
X79867000Y-36701603D01*
X79867000Y-36558397D01*
X79839062Y-36417942D01*
X79795564Y-36312929D01*
X79829062Y-36232058D01*
X79849039Y-36131627D01*
X79966976Y-36131627D01*
X80107431Y-36103689D01*
X80239737Y-36048886D01*
X80358809Y-35969325D01*
X80460071Y-35868063D01*
X80539632Y-35748991D01*
X80594435Y-35616685D01*
X80622373Y-35476230D01*
X80622373Y-35333024D01*
X80594435Y-35192569D01*
X80539632Y-35060263D01*
X80460071Y-34941191D01*
X80358809Y-34839929D01*
X80239737Y-34760368D01*
X80107431Y-34705565D01*
X79966976Y-34677627D01*
X79823770Y-34677627D01*
X79683315Y-34705565D01*
X79551009Y-34760368D01*
X79431937Y-34839929D01*
X79330675Y-34941191D01*
X79251114Y-35060263D01*
X79196311Y-35192569D01*
X79176334Y-35293000D01*
X79058397Y-35293000D01*
X78917942Y-35320938D01*
X78785636Y-35375741D01*
X78666564Y-35455302D01*
X78565302Y-35556564D01*
X78485741Y-35675636D01*
X78430938Y-35807942D01*
X78403000Y-35948397D01*
X74917000Y-35948397D01*
X74917000Y-35938397D01*
X74889062Y-35797942D01*
X74834259Y-35665636D01*
X74754698Y-35546564D01*
X74653436Y-35445302D01*
X74534364Y-35365741D01*
X74402058Y-35310938D01*
X74261603Y-35283000D01*
X74118397Y-35283000D01*
X73977942Y-35310938D01*
X73845636Y-35365741D01*
X73726564Y-35445302D01*
X73625302Y-35546564D01*
X73545741Y-35665636D01*
X73490938Y-35797942D01*
X73463000Y-35938397D01*
X73463000Y-36001002D01*
X73456564Y-36005302D01*
X73355302Y-36106564D01*
X73275741Y-36225636D01*
X73220938Y-36357942D01*
X73193000Y-36498397D01*
X71275954Y-36498397D01*
X71270822Y-36446293D01*
X71246405Y-36365804D01*
X71206755Y-36291624D01*
X71153395Y-36226605D01*
X71088376Y-36173245D01*
X71014196Y-36133595D01*
X70933707Y-36109178D01*
X70850000Y-36100934D01*
X69352000Y-36100934D01*
X69352000Y-35739066D01*
X70850000Y-35739066D01*
X70933707Y-35730822D01*
X71014196Y-35706405D01*
X71088376Y-35666755D01*
X71153395Y-35613395D01*
X71206755Y-35548376D01*
X71246405Y-35474196D01*
X71270822Y-35393707D01*
X71279066Y-35310000D01*
X71279066Y-33688395D01*
X73203000Y-33688395D01*
X73203000Y-33831601D01*
X73230938Y-33972056D01*
X73285741Y-34104362D01*
X73365302Y-34223434D01*
X73466564Y-34324696D01*
X73585636Y-34404257D01*
X73717942Y-34459060D01*
X73858397Y-34486998D01*
X74001603Y-34486998D01*
X74142058Y-34459060D01*
X74274364Y-34404257D01*
X74393436Y-34324696D01*
X74494698Y-34223434D01*
X74574259Y-34104362D01*
X74629062Y-33972056D01*
X74657000Y-33831601D01*
X74657000Y-33708397D01*
X77063000Y-33708397D01*
X77063000Y-33851603D01*
X77090938Y-33992058D01*
X77145741Y-34124364D01*
X77225302Y-34243436D01*
X77326564Y-34344698D01*
X77445636Y-34424259D01*
X77577942Y-34479062D01*
X77634742Y-34490360D01*
X77660938Y-34622058D01*
X77715741Y-34754364D01*
X77795302Y-34873436D01*
X77896564Y-34974698D01*
X78015636Y-35054259D01*
X78147942Y-35109062D01*
X78288397Y-35137000D01*
X78431603Y-35137000D01*
X78572058Y-35109062D01*
X78704364Y-35054259D01*
X78823436Y-34974698D01*
X78924698Y-34873436D01*
X79004259Y-34754364D01*
X79059062Y-34622058D01*
X79087000Y-34481603D01*
X79087000Y-34338397D01*
X79059062Y-34197942D01*
X79004259Y-34065636D01*
X78924698Y-33946564D01*
X78823436Y-33845302D01*
X78704364Y-33765741D01*
X78572058Y-33710938D01*
X78515258Y-33699640D01*
X78489062Y-33567942D01*
X78434259Y-33435636D01*
X78354698Y-33316564D01*
X78253436Y-33215302D01*
X78134364Y-33135741D01*
X78002058Y-33080938D01*
X77861603Y-33053000D01*
X77718397Y-33053000D01*
X77577942Y-33080938D01*
X77445636Y-33135741D01*
X77326564Y-33215302D01*
X77225302Y-33316564D01*
X77145741Y-33435636D01*
X77090938Y-33567942D01*
X77063000Y-33708397D01*
X74657000Y-33708397D01*
X74657000Y-33688395D01*
X74629062Y-33547940D01*
X74574259Y-33415634D01*
X74494698Y-33296562D01*
X74393436Y-33195300D01*
X74274364Y-33115739D01*
X74142058Y-33060936D01*
X74001603Y-33032998D01*
X73858397Y-33032998D01*
X73717942Y-33060936D01*
X73585636Y-33115739D01*
X73466564Y-33195300D01*
X73365302Y-33296562D01*
X73285741Y-33415634D01*
X73230938Y-33547940D01*
X73203000Y-33688395D01*
X71279066Y-33688395D01*
X71279066Y-33610000D01*
X71270822Y-33526293D01*
X71246405Y-33445804D01*
X71206755Y-33371624D01*
X71153395Y-33306605D01*
X71088376Y-33253245D01*
X71014196Y-33213595D01*
X70933707Y-33189178D01*
X70850000Y-33180934D01*
X69352000Y-33180934D01*
X69352000Y-31022109D01*
X69381779Y-30718397D01*
X70253000Y-30718397D01*
X70253000Y-30861603D01*
X70280938Y-31002058D01*
X70335741Y-31134364D01*
X70415302Y-31253436D01*
X70516564Y-31354698D01*
X70635636Y-31434259D01*
X70767942Y-31489062D01*
X70908397Y-31517000D01*
X71051603Y-31517000D01*
X71192058Y-31489062D01*
X71324364Y-31434259D01*
X71443436Y-31354698D01*
X71544698Y-31253436D01*
X71624259Y-31134364D01*
X71679062Y-31002058D01*
X71707000Y-30861603D01*
X71707000Y-30718397D01*
X71679062Y-30577942D01*
X71624259Y-30445636D01*
X71544698Y-30326564D01*
X71443436Y-30225302D01*
X71324364Y-30145741D01*
X71192058Y-30090938D01*
X71051603Y-30063000D01*
X70908397Y-30063000D01*
X70767942Y-30090938D01*
X70635636Y-30145741D01*
X70516564Y-30225302D01*
X70415302Y-30326564D01*
X70335741Y-30445636D01*
X70280938Y-30577942D01*
X70253000Y-30718397D01*
X69381779Y-30718397D01*
X69383609Y-30699742D01*
X69470806Y-30410931D01*
X69612444Y-30144549D01*
X69803124Y-29910753D01*
X70035583Y-29718446D01*
X70300964Y-29574955D01*
X70589167Y-29485741D01*
X70910193Y-29452000D01*
X72680934Y-29452000D01*
X72680934Y-30880000D01*
%TD*%
M02*
