%TF.GenerationSoftware,KiCad,Pcbnew,(5.1.6-0-10_14)*%
%TF.CreationDate,2020-12-19T22:37:24+01:00*%
%TF.ProjectId,ESCv2,45534376-322e-46b6-9963-61645f706362,v0.1*%
%TF.SameCoordinates,Original*%
%TF.FileFunction,Copper,L3,Inr*%
%TF.FilePolarity,Positive*%
%FSLAX46Y46*%
G04 Gerber Fmt 4.6, Leading zero omitted, Abs format (unit mm)*
G04 Created by KiCad (PCBNEW (5.1.6-0-10_14)) date 2020-12-19 22:37:24*
%MOMM*%
%LPD*%
G01*
G04 APERTURE LIST*
%TA.AperFunction,ViaPad*%
%ADD10O,1.700000X1.700000*%
%TD*%
%TA.AperFunction,ViaPad*%
%ADD11R,1.700000X1.700000*%
%TD*%
%TA.AperFunction,ViaPad*%
%ADD12O,1.000000X1.000000*%
%TD*%
%TA.AperFunction,ViaPad*%
%ADD13R,1.000000X1.000000*%
%TD*%
%TA.AperFunction,ViaPad*%
%ADD14C,0.600000*%
%TD*%
%TA.AperFunction,Conductor*%
%ADD15C,0.300000*%
%TD*%
G04 APERTURE END LIST*
D10*
%TO.N,MOTOR3*%
%TO.C,Motor1*%
X79040000Y-42480000D03*
%TO.N,MOTOR2*%
X76500000Y-42480000D03*
D11*
%TO.N,MOTOR1*%
X73960000Y-42480000D03*
%TD*%
D12*
%TO.N,EN*%
%TO.C,J3*%
X81690000Y-40090000D03*
%TO.N,EN_FLT*%
X81690000Y-38820000D03*
%TO.N,ENW*%
X81690000Y-37550000D03*
%TO.N,ENV*%
X81690000Y-36280000D03*
%TO.N,ENU*%
X81690000Y-35010000D03*
%TO.N,STBY_RST*%
X81690000Y-33740000D03*
D13*
%TO.N,VBATOUT*%
X81690000Y-32470000D03*
%TD*%
D10*
%TO.N,GNDPWR*%
%TO.C,J1*%
X70000000Y-39920000D03*
D11*
%TO.N,VS*%
X70000000Y-37380000D03*
%TD*%
D10*
%TO.N,GNDPWR*%
%TO.C,J5*%
X70000000Y-31920000D03*
D11*
%TO.N,VDD*%
X70000000Y-34460000D03*
%TD*%
D10*
%TO.N,INW*%
%TO.C,J2*%
X79040000Y-30030000D03*
%TO.N,INV*%
X76500000Y-30030000D03*
D11*
%TO.N,INU*%
X73960000Y-30030000D03*
%TD*%
D14*
%TO.N,GNDPWR*%
X76160000Y-35220000D03*
X77120000Y-35230000D03*
X76630000Y-35760000D03*
X76160000Y-36260000D03*
X77130000Y-36270000D03*
X72340000Y-34960000D03*
X71960000Y-32880000D03*
X72650000Y-32880000D03*
X72990000Y-34950000D03*
X74790000Y-37010000D03*
X74780000Y-37590000D03*
X77868645Y-37215539D03*
X78070000Y-37819998D03*
X77865193Y-32210263D03*
X79850911Y-31880011D03*
%TO.N,EN_FLT*%
X77790000Y-33780000D03*
%TO.N,STBY_RST*%
X77067375Y-32151065D03*
%TO.N,VS*%
X72540000Y-41810000D03*
X75430000Y-39300000D03*
X77990000Y-40100000D03*
X72980000Y-39512990D03*
%TO.N,VBATOUT*%
X78040000Y-41310000D03*
X80850000Y-39540000D03*
%TO.N,VDD*%
X70980000Y-30790000D03*
X80000000Y-41270000D03*
X79895373Y-35404627D03*
X77760000Y-30680000D03*
%TO.N,Net-(D2-Pad1)*%
X70525000Y-41820000D03*
X73930000Y-33759998D03*
%TO.N,ENW*%
X78360000Y-34410000D03*
%TO.N,ENV*%
X75810750Y-32817905D03*
%TO.N,ENU*%
X74759980Y-31880011D03*
%TO.N,MOTOR3*%
X79130000Y-36020000D03*
X79140000Y-36630000D03*
%TO.N,MOTOR1*%
X74190000Y-36010000D03*
X73920000Y-36570000D03*
%TD*%
D15*
%TO.N,EN_FLT*%
X77920000Y-33770000D02*
X76490000Y-33770000D01*
X76490000Y-33770000D02*
X75490000Y-34770000D01*
X75490000Y-34770000D02*
X75490000Y-36840000D01*
X77470000Y-38820000D02*
X81690000Y-38820000D01*
X75490000Y-36840000D02*
X77470000Y-38820000D01*
%TO.N,VS*%
X75680000Y-39550000D02*
X77440000Y-39550000D01*
X77440000Y-39550000D02*
X77990000Y-40100000D01*
X75430000Y-39300000D02*
X75680000Y-39550000D01*
%TO.N,VBATOUT*%
X80850000Y-39540000D02*
X80060000Y-39540000D01*
X78040000Y-41310000D02*
X78540000Y-41310000D01*
X78540000Y-41310000D02*
X79470000Y-40380000D01*
X79470000Y-40130000D02*
X80060000Y-39540000D01*
X79470000Y-40380000D02*
X79470000Y-40130000D01*
%TO.N,Net-(D2-Pad1)*%
X70525000Y-41820000D02*
X71200001Y-41144999D01*
X71200001Y-41144999D02*
X71200001Y-37729999D01*
X71200001Y-37729999D02*
X73930000Y-35000000D01*
X73930000Y-35000000D02*
X73930000Y-33759998D01*
%TO.N,ENW*%
X78360000Y-34410000D02*
X78360000Y-36790000D01*
X79120000Y-37550000D02*
X81690000Y-37550000D01*
X78360000Y-36790000D02*
X79120000Y-37550000D01*
%TO.N,ENV*%
X81690000Y-36280000D02*
X78439999Y-33029999D01*
X76022844Y-33029999D02*
X75810750Y-32817905D01*
X78439999Y-33029999D02*
X76022844Y-33029999D01*
%TO.N,ENU*%
X81690000Y-35010000D02*
X78180000Y-31500000D01*
X78180000Y-31500000D02*
X75139991Y-31500000D01*
X75139991Y-31500000D02*
X74759980Y-31880011D01*
%TD*%
M02*
