%TF.GenerationSoftware,KiCad,Pcbnew,(5.1.6-0-10_14)*%
%TF.CreationDate,2020-12-19T22:37:24+01:00*%
%TF.ProjectId,ESCv2,45534376-322e-46b6-9963-61645f706362,v0.1*%
%TF.SameCoordinates,Original*%
%TF.FileFunction,Paste,Top*%
%TF.FilePolarity,Positive*%
%FSLAX46Y46*%
G04 Gerber Fmt 4.6, Leading zero omitted, Abs format (unit mm)*
G04 Created by KiCad (PCBNEW (5.1.6-0-10_14)) date 2020-12-19 22:37:24*
%MOMM*%
%LPD*%
G01*
G04 APERTURE LIST*
G04 APERTURE END LIST*
%TO.C,D1*%
G36*
G01*
X71910000Y-30627500D02*
X71910000Y-30972500D01*
G75*
G02*
X71762500Y-31120000I-147500J0D01*
G01*
X71467500Y-31120000D01*
G75*
G02*
X71320000Y-30972500I0J147500D01*
G01*
X71320000Y-30627500D01*
G75*
G02*
X71467500Y-30480000I147500J0D01*
G01*
X71762500Y-30480000D01*
G75*
G02*
X71910000Y-30627500I0J-147500D01*
G01*
G37*
G36*
G01*
X72880000Y-30627500D02*
X72880000Y-30972500D01*
G75*
G02*
X72732500Y-31120000I-147500J0D01*
G01*
X72437500Y-31120000D01*
G75*
G02*
X72290000Y-30972500I0J147500D01*
G01*
X72290000Y-30627500D01*
G75*
G02*
X72437500Y-30480000I147500J0D01*
G01*
X72732500Y-30480000D01*
G75*
G02*
X72880000Y-30627500I0J-147500D01*
G01*
G37*
%TD*%
%TO.C,D2*%
G36*
G01*
X71710000Y-41982500D02*
X71710000Y-41637500D01*
G75*
G02*
X71857500Y-41490000I147500J0D01*
G01*
X72152500Y-41490000D01*
G75*
G02*
X72300000Y-41637500I0J-147500D01*
G01*
X72300000Y-41982500D01*
G75*
G02*
X72152500Y-42130000I-147500J0D01*
G01*
X71857500Y-42130000D01*
G75*
G02*
X71710000Y-41982500I0J147500D01*
G01*
G37*
G36*
G01*
X70740000Y-41982500D02*
X70740000Y-41637500D01*
G75*
G02*
X70887500Y-41490000I147500J0D01*
G01*
X71182500Y-41490000D01*
G75*
G02*
X71330000Y-41637500I0J-147500D01*
G01*
X71330000Y-41982500D01*
G75*
G02*
X71182500Y-42130000I-147500J0D01*
G01*
X70887500Y-42130000D01*
G75*
G02*
X70740000Y-41982500I0J147500D01*
G01*
G37*
%TD*%
%TO.C,U1*%
G36*
G01*
X76725000Y-36382500D02*
X76725000Y-36017500D01*
G75*
G02*
X76907500Y-35835000I182500J0D01*
G01*
X77272500Y-35835000D01*
G75*
G02*
X77455000Y-36017500I0J-182500D01*
G01*
X77455000Y-36382500D01*
G75*
G02*
X77272500Y-36565000I-182500J0D01*
G01*
X76907500Y-36565000D01*
G75*
G02*
X76725000Y-36382500I0J182500D01*
G01*
G37*
G36*
G01*
X76725000Y-35482500D02*
X76725000Y-35117500D01*
G75*
G02*
X76907500Y-34935000I182500J0D01*
G01*
X77272500Y-34935000D01*
G75*
G02*
X77455000Y-35117500I0J-182500D01*
G01*
X77455000Y-35482500D01*
G75*
G02*
X77272500Y-35665000I-182500J0D01*
G01*
X76907500Y-35665000D01*
G75*
G02*
X76725000Y-35482500I0J182500D01*
G01*
G37*
G36*
G01*
X75825000Y-36382500D02*
X75825000Y-36017500D01*
G75*
G02*
X76007500Y-35835000I182500J0D01*
G01*
X76372500Y-35835000D01*
G75*
G02*
X76555000Y-36017500I0J-182500D01*
G01*
X76555000Y-36382500D01*
G75*
G02*
X76372500Y-36565000I-182500J0D01*
G01*
X76007500Y-36565000D01*
G75*
G02*
X75825000Y-36382500I0J182500D01*
G01*
G37*
G36*
G01*
X75825000Y-35482500D02*
X75825000Y-35117500D01*
G75*
G02*
X76007500Y-34935000I182500J0D01*
G01*
X76372500Y-34935000D01*
G75*
G02*
X76555000Y-35117500I0J-182500D01*
G01*
X76555000Y-35482500D01*
G75*
G02*
X76372500Y-35665000I-182500J0D01*
G01*
X76007500Y-35665000D01*
G75*
G02*
X75825000Y-35482500I0J182500D01*
G01*
G37*
G36*
G01*
X75765000Y-34587500D02*
X75765000Y-33937500D01*
G75*
G02*
X75827500Y-33875000I62500J0D01*
G01*
X75952500Y-33875000D01*
G75*
G02*
X76015000Y-33937500I0J-62500D01*
G01*
X76015000Y-34587500D01*
G75*
G02*
X75952500Y-34650000I-62500J0D01*
G01*
X75827500Y-34650000D01*
G75*
G02*
X75765000Y-34587500I0J62500D01*
G01*
G37*
G36*
G01*
X76265000Y-34587500D02*
X76265000Y-33937500D01*
G75*
G02*
X76327500Y-33875000I62500J0D01*
G01*
X76452500Y-33875000D01*
G75*
G02*
X76515000Y-33937500I0J-62500D01*
G01*
X76515000Y-34587500D01*
G75*
G02*
X76452500Y-34650000I-62500J0D01*
G01*
X76327500Y-34650000D01*
G75*
G02*
X76265000Y-34587500I0J62500D01*
G01*
G37*
G36*
G01*
X76765000Y-34587500D02*
X76765000Y-33937500D01*
G75*
G02*
X76827500Y-33875000I62500J0D01*
G01*
X76952500Y-33875000D01*
G75*
G02*
X77015000Y-33937500I0J-62500D01*
G01*
X77015000Y-34587500D01*
G75*
G02*
X76952500Y-34650000I-62500J0D01*
G01*
X76827500Y-34650000D01*
G75*
G02*
X76765000Y-34587500I0J62500D01*
G01*
G37*
G36*
G01*
X77265000Y-34587500D02*
X77265000Y-33937500D01*
G75*
G02*
X77327500Y-33875000I62500J0D01*
G01*
X77452500Y-33875000D01*
G75*
G02*
X77515000Y-33937500I0J-62500D01*
G01*
X77515000Y-34587500D01*
G75*
G02*
X77452500Y-34650000I-62500J0D01*
G01*
X77327500Y-34650000D01*
G75*
G02*
X77265000Y-34587500I0J62500D01*
G01*
G37*
G36*
G01*
X77740000Y-35062500D02*
X77740000Y-34937500D01*
G75*
G02*
X77802500Y-34875000I62500J0D01*
G01*
X78452500Y-34875000D01*
G75*
G02*
X78515000Y-34937500I0J-62500D01*
G01*
X78515000Y-35062500D01*
G75*
G02*
X78452500Y-35125000I-62500J0D01*
G01*
X77802500Y-35125000D01*
G75*
G02*
X77740000Y-35062500I0J62500D01*
G01*
G37*
G36*
G01*
X77740000Y-35562500D02*
X77740000Y-35437500D01*
G75*
G02*
X77802500Y-35375000I62500J0D01*
G01*
X78452500Y-35375000D01*
G75*
G02*
X78515000Y-35437500I0J-62500D01*
G01*
X78515000Y-35562500D01*
G75*
G02*
X78452500Y-35625000I-62500J0D01*
G01*
X77802500Y-35625000D01*
G75*
G02*
X77740000Y-35562500I0J62500D01*
G01*
G37*
G36*
G01*
X77740000Y-36062500D02*
X77740000Y-35937500D01*
G75*
G02*
X77802500Y-35875000I62500J0D01*
G01*
X78452500Y-35875000D01*
G75*
G02*
X78515000Y-35937500I0J-62500D01*
G01*
X78515000Y-36062500D01*
G75*
G02*
X78452500Y-36125000I-62500J0D01*
G01*
X77802500Y-36125000D01*
G75*
G02*
X77740000Y-36062500I0J62500D01*
G01*
G37*
G36*
G01*
X77740000Y-36562500D02*
X77740000Y-36437500D01*
G75*
G02*
X77802500Y-36375000I62500J0D01*
G01*
X78452500Y-36375000D01*
G75*
G02*
X78515000Y-36437500I0J-62500D01*
G01*
X78515000Y-36562500D01*
G75*
G02*
X78452500Y-36625000I-62500J0D01*
G01*
X77802500Y-36625000D01*
G75*
G02*
X77740000Y-36562500I0J62500D01*
G01*
G37*
G36*
G01*
X77265000Y-37562500D02*
X77265000Y-36912500D01*
G75*
G02*
X77327500Y-36850000I62500J0D01*
G01*
X77452500Y-36850000D01*
G75*
G02*
X77515000Y-36912500I0J-62500D01*
G01*
X77515000Y-37562500D01*
G75*
G02*
X77452500Y-37625000I-62500J0D01*
G01*
X77327500Y-37625000D01*
G75*
G02*
X77265000Y-37562500I0J62500D01*
G01*
G37*
G36*
G01*
X76765000Y-37562500D02*
X76765000Y-36912500D01*
G75*
G02*
X76827500Y-36850000I62500J0D01*
G01*
X76952500Y-36850000D01*
G75*
G02*
X77015000Y-36912500I0J-62500D01*
G01*
X77015000Y-37562500D01*
G75*
G02*
X76952500Y-37625000I-62500J0D01*
G01*
X76827500Y-37625000D01*
G75*
G02*
X76765000Y-37562500I0J62500D01*
G01*
G37*
G36*
G01*
X76265000Y-37562500D02*
X76265000Y-36912500D01*
G75*
G02*
X76327500Y-36850000I62500J0D01*
G01*
X76452500Y-36850000D01*
G75*
G02*
X76515000Y-36912500I0J-62500D01*
G01*
X76515000Y-37562500D01*
G75*
G02*
X76452500Y-37625000I-62500J0D01*
G01*
X76327500Y-37625000D01*
G75*
G02*
X76265000Y-37562500I0J62500D01*
G01*
G37*
G36*
G01*
X75765000Y-37562500D02*
X75765000Y-36912500D01*
G75*
G02*
X75827500Y-36850000I62500J0D01*
G01*
X75952500Y-36850000D01*
G75*
G02*
X76015000Y-36912500I0J-62500D01*
G01*
X76015000Y-37562500D01*
G75*
G02*
X75952500Y-37625000I-62500J0D01*
G01*
X75827500Y-37625000D01*
G75*
G02*
X75765000Y-37562500I0J62500D01*
G01*
G37*
G36*
G01*
X74765000Y-36562500D02*
X74765000Y-36437500D01*
G75*
G02*
X74827500Y-36375000I62500J0D01*
G01*
X75477500Y-36375000D01*
G75*
G02*
X75540000Y-36437500I0J-62500D01*
G01*
X75540000Y-36562500D01*
G75*
G02*
X75477500Y-36625000I-62500J0D01*
G01*
X74827500Y-36625000D01*
G75*
G02*
X74765000Y-36562500I0J62500D01*
G01*
G37*
G36*
G01*
X74765000Y-36062500D02*
X74765000Y-35937500D01*
G75*
G02*
X74827500Y-35875000I62500J0D01*
G01*
X75477500Y-35875000D01*
G75*
G02*
X75540000Y-35937500I0J-62500D01*
G01*
X75540000Y-36062500D01*
G75*
G02*
X75477500Y-36125000I-62500J0D01*
G01*
X74827500Y-36125000D01*
G75*
G02*
X74765000Y-36062500I0J62500D01*
G01*
G37*
G36*
G01*
X74765000Y-35562500D02*
X74765000Y-35437500D01*
G75*
G02*
X74827500Y-35375000I62500J0D01*
G01*
X75477500Y-35375000D01*
G75*
G02*
X75540000Y-35437500I0J-62500D01*
G01*
X75540000Y-35562500D01*
G75*
G02*
X75477500Y-35625000I-62500J0D01*
G01*
X74827500Y-35625000D01*
G75*
G02*
X74765000Y-35562500I0J62500D01*
G01*
G37*
G36*
G01*
X74765000Y-35062500D02*
X74765000Y-34937500D01*
G75*
G02*
X74827500Y-34875000I62500J0D01*
G01*
X75477500Y-34875000D01*
G75*
G02*
X75540000Y-34937500I0J-62500D01*
G01*
X75540000Y-35062500D01*
G75*
G02*
X75477500Y-35125000I-62500J0D01*
G01*
X74827500Y-35125000D01*
G75*
G02*
X74765000Y-35062500I0J62500D01*
G01*
G37*
%TD*%
%TO.C,R12*%
G36*
G01*
X80327500Y-32850000D02*
X80672500Y-32850000D01*
G75*
G02*
X80820000Y-32997500I0J-147500D01*
G01*
X80820000Y-33292500D01*
G75*
G02*
X80672500Y-33440000I-147500J0D01*
G01*
X80327500Y-33440000D01*
G75*
G02*
X80180000Y-33292500I0J147500D01*
G01*
X80180000Y-32997500D01*
G75*
G02*
X80327500Y-32850000I147500J0D01*
G01*
G37*
G36*
G01*
X80327500Y-31880000D02*
X80672500Y-31880000D01*
G75*
G02*
X80820000Y-32027500I0J-147500D01*
G01*
X80820000Y-32322500D01*
G75*
G02*
X80672500Y-32470000I-147500J0D01*
G01*
X80327500Y-32470000D01*
G75*
G02*
X80180000Y-32322500I0J147500D01*
G01*
X80180000Y-32027500D01*
G75*
G02*
X80327500Y-31880000I147500J0D01*
G01*
G37*
%TD*%
%TO.C,R11*%
G36*
G01*
X78812500Y-40390000D02*
X78467500Y-40390000D01*
G75*
G02*
X78320000Y-40242500I0J147500D01*
G01*
X78320000Y-39947500D01*
G75*
G02*
X78467500Y-39800000I147500J0D01*
G01*
X78812500Y-39800000D01*
G75*
G02*
X78960000Y-39947500I0J-147500D01*
G01*
X78960000Y-40242500D01*
G75*
G02*
X78812500Y-40390000I-147500J0D01*
G01*
G37*
G36*
G01*
X78812500Y-41360000D02*
X78467500Y-41360000D01*
G75*
G02*
X78320000Y-41212500I0J147500D01*
G01*
X78320000Y-40917500D01*
G75*
G02*
X78467500Y-40770000I147500J0D01*
G01*
X78812500Y-40770000D01*
G75*
G02*
X78960000Y-40917500I0J-147500D01*
G01*
X78960000Y-41212500D01*
G75*
G02*
X78812500Y-41360000I-147500J0D01*
G01*
G37*
%TD*%
%TO.C,R8*%
G36*
G01*
X80980000Y-41187500D02*
X80980000Y-41532500D01*
G75*
G02*
X80832500Y-41680000I-147500J0D01*
G01*
X80537500Y-41680000D01*
G75*
G02*
X80390000Y-41532500I0J147500D01*
G01*
X80390000Y-41187500D01*
G75*
G02*
X80537500Y-41040000I147500J0D01*
G01*
X80832500Y-41040000D01*
G75*
G02*
X80980000Y-41187500I0J-147500D01*
G01*
G37*
G36*
G01*
X81950000Y-41187500D02*
X81950000Y-41532500D01*
G75*
G02*
X81802500Y-41680000I-147500J0D01*
G01*
X81507500Y-41680000D01*
G75*
G02*
X81360000Y-41532500I0J147500D01*
G01*
X81360000Y-41187500D01*
G75*
G02*
X81507500Y-41040000I147500J0D01*
G01*
X81802500Y-41040000D01*
G75*
G02*
X81950000Y-41187500I0J-147500D01*
G01*
G37*
%TD*%
%TO.C,R7*%
G36*
G01*
X73757500Y-32540000D02*
X74102500Y-32540000D01*
G75*
G02*
X74250000Y-32687500I0J-147500D01*
G01*
X74250000Y-32982500D01*
G75*
G02*
X74102500Y-33130000I-147500J0D01*
G01*
X73757500Y-33130000D01*
G75*
G02*
X73610000Y-32982500I0J147500D01*
G01*
X73610000Y-32687500D01*
G75*
G02*
X73757500Y-32540000I147500J0D01*
G01*
G37*
G36*
G01*
X73757500Y-31570000D02*
X74102500Y-31570000D01*
G75*
G02*
X74250000Y-31717500I0J-147500D01*
G01*
X74250000Y-32012500D01*
G75*
G02*
X74102500Y-32160000I-147500J0D01*
G01*
X73757500Y-32160000D01*
G75*
G02*
X73610000Y-32012500I0J147500D01*
G01*
X73610000Y-31717500D01*
G75*
G02*
X73757500Y-31570000I147500J0D01*
G01*
G37*
%TD*%
%TO.C,R6*%
G36*
G01*
X72320000Y-31647500D02*
X72320000Y-31992500D01*
G75*
G02*
X72172500Y-32140000I-147500J0D01*
G01*
X71877500Y-32140000D01*
G75*
G02*
X71730000Y-31992500I0J147500D01*
G01*
X71730000Y-31647500D01*
G75*
G02*
X71877500Y-31500000I147500J0D01*
G01*
X72172500Y-31500000D01*
G75*
G02*
X72320000Y-31647500I0J-147500D01*
G01*
G37*
G36*
G01*
X73290000Y-31647500D02*
X73290000Y-31992500D01*
G75*
G02*
X73142500Y-32140000I-147500J0D01*
G01*
X72847500Y-32140000D01*
G75*
G02*
X72700000Y-31992500I0J147500D01*
G01*
X72700000Y-31647500D01*
G75*
G02*
X72847500Y-31500000I147500J0D01*
G01*
X73142500Y-31500000D01*
G75*
G02*
X73290000Y-31647500I0J-147500D01*
G01*
G37*
%TD*%
%TO.C,R5*%
G36*
G01*
X80380000Y-34482500D02*
X80380000Y-34137500D01*
G75*
G02*
X80527500Y-33990000I147500J0D01*
G01*
X80822500Y-33990000D01*
G75*
G02*
X80970000Y-34137500I0J-147500D01*
G01*
X80970000Y-34482500D01*
G75*
G02*
X80822500Y-34630000I-147500J0D01*
G01*
X80527500Y-34630000D01*
G75*
G02*
X80380000Y-34482500I0J147500D01*
G01*
G37*
G36*
G01*
X79410000Y-34482500D02*
X79410000Y-34137500D01*
G75*
G02*
X79557500Y-33990000I147500J0D01*
G01*
X79852500Y-33990000D01*
G75*
G02*
X80000000Y-34137500I0J-147500D01*
G01*
X80000000Y-34482500D01*
G75*
G02*
X79852500Y-34630000I-147500J0D01*
G01*
X79557500Y-34630000D01*
G75*
G02*
X79410000Y-34482500I0J147500D01*
G01*
G37*
%TD*%
%TO.C,R4*%
G36*
G01*
X80752500Y-36400000D02*
X80407500Y-36400000D01*
G75*
G02*
X80260000Y-36252500I0J147500D01*
G01*
X80260000Y-35957500D01*
G75*
G02*
X80407500Y-35810000I147500J0D01*
G01*
X80752500Y-35810000D01*
G75*
G02*
X80900000Y-35957500I0J-147500D01*
G01*
X80900000Y-36252500D01*
G75*
G02*
X80752500Y-36400000I-147500J0D01*
G01*
G37*
G36*
G01*
X80752500Y-37370000D02*
X80407500Y-37370000D01*
G75*
G02*
X80260000Y-37222500I0J147500D01*
G01*
X80260000Y-36927500D01*
G75*
G02*
X80407500Y-36780000I147500J0D01*
G01*
X80752500Y-36780000D01*
G75*
G02*
X80900000Y-36927500I0J-147500D01*
G01*
X80900000Y-37222500D01*
G75*
G02*
X80752500Y-37370000I-147500J0D01*
G01*
G37*
%TD*%
%TO.C,R3*%
G36*
G01*
X80190000Y-38252500D02*
X80190000Y-37907500D01*
G75*
G02*
X80337500Y-37760000I147500J0D01*
G01*
X80632500Y-37760000D01*
G75*
G02*
X80780000Y-37907500I0J-147500D01*
G01*
X80780000Y-38252500D01*
G75*
G02*
X80632500Y-38400000I-147500J0D01*
G01*
X80337500Y-38400000D01*
G75*
G02*
X80190000Y-38252500I0J147500D01*
G01*
G37*
G36*
G01*
X79220000Y-38252500D02*
X79220000Y-37907500D01*
G75*
G02*
X79367500Y-37760000I147500J0D01*
G01*
X79662500Y-37760000D01*
G75*
G02*
X79810000Y-37907500I0J-147500D01*
G01*
X79810000Y-38252500D01*
G75*
G02*
X79662500Y-38400000I-147500J0D01*
G01*
X79367500Y-38400000D01*
G75*
G02*
X79220000Y-38252500I0J147500D01*
G01*
G37*
%TD*%
%TO.C,R2*%
G36*
G01*
X77910000Y-31562500D02*
X77910000Y-31217500D01*
G75*
G02*
X78057500Y-31070000I147500J0D01*
G01*
X78352500Y-31070000D01*
G75*
G02*
X78500000Y-31217500I0J-147500D01*
G01*
X78500000Y-31562500D01*
G75*
G02*
X78352500Y-31710000I-147500J0D01*
G01*
X78057500Y-31710000D01*
G75*
G02*
X77910000Y-31562500I0J147500D01*
G01*
G37*
G36*
G01*
X76940000Y-31562500D02*
X76940000Y-31217500D01*
G75*
G02*
X77087500Y-31070000I147500J0D01*
G01*
X77382500Y-31070000D01*
G75*
G02*
X77530000Y-31217500I0J-147500D01*
G01*
X77530000Y-31562500D01*
G75*
G02*
X77382500Y-31710000I-147500J0D01*
G01*
X77087500Y-31710000D01*
G75*
G02*
X76940000Y-31562500I0J147500D01*
G01*
G37*
%TD*%
%TO.C,R1*%
G36*
G01*
X80250000Y-40532500D02*
X80250000Y-40187500D01*
G75*
G02*
X80397500Y-40040000I147500J0D01*
G01*
X80692500Y-40040000D01*
G75*
G02*
X80840000Y-40187500I0J-147500D01*
G01*
X80840000Y-40532500D01*
G75*
G02*
X80692500Y-40680000I-147500J0D01*
G01*
X80397500Y-40680000D01*
G75*
G02*
X80250000Y-40532500I0J147500D01*
G01*
G37*
G36*
G01*
X79280000Y-40532500D02*
X79280000Y-40187500D01*
G75*
G02*
X79427500Y-40040000I147500J0D01*
G01*
X79722500Y-40040000D01*
G75*
G02*
X79870000Y-40187500I0J-147500D01*
G01*
X79870000Y-40532500D01*
G75*
G02*
X79722500Y-40680000I-147500J0D01*
G01*
X79427500Y-40680000D01*
G75*
G02*
X79280000Y-40532500I0J147500D01*
G01*
G37*
%TD*%
%TO.C,C13*%
G36*
G01*
X80760000Y-30917500D02*
X80760000Y-31262500D01*
G75*
G02*
X80612500Y-31410000I-147500J0D01*
G01*
X80317500Y-31410000D01*
G75*
G02*
X80170000Y-31262500I0J147500D01*
G01*
X80170000Y-30917500D01*
G75*
G02*
X80317500Y-30770000I147500J0D01*
G01*
X80612500Y-30770000D01*
G75*
G02*
X80760000Y-30917500I0J-147500D01*
G01*
G37*
G36*
G01*
X81730000Y-30917500D02*
X81730000Y-31262500D01*
G75*
G02*
X81582500Y-31410000I-147500J0D01*
G01*
X81287500Y-31410000D01*
G75*
G02*
X81140000Y-31262500I0J147500D01*
G01*
X81140000Y-30917500D01*
G75*
G02*
X81287500Y-30770000I147500J0D01*
G01*
X81582500Y-30770000D01*
G75*
G02*
X81730000Y-30917500I0J-147500D01*
G01*
G37*
%TD*%
%TO.C,C4*%
G36*
G01*
X72965000Y-34555000D02*
X71715000Y-34555000D01*
G75*
G02*
X71465000Y-34305000I0J250000D01*
G01*
X71465000Y-33555000D01*
G75*
G02*
X71715000Y-33305000I250000J0D01*
G01*
X72965000Y-33305000D01*
G75*
G02*
X73215000Y-33555000I0J-250000D01*
G01*
X73215000Y-34305000D01*
G75*
G02*
X72965000Y-34555000I-250000J0D01*
G01*
G37*
G36*
G01*
X72965000Y-37355000D02*
X71715000Y-37355000D01*
G75*
G02*
X71465000Y-37105000I0J250000D01*
G01*
X71465000Y-36355000D01*
G75*
G02*
X71715000Y-36105000I250000J0D01*
G01*
X72965000Y-36105000D01*
G75*
G02*
X73215000Y-36355000I0J-250000D01*
G01*
X73215000Y-37105000D01*
G75*
G02*
X72965000Y-37355000I-250000J0D01*
G01*
G37*
%TD*%
%TO.C,C3*%
G36*
G01*
X75063750Y-40000000D02*
X75976250Y-40000000D01*
G75*
G02*
X76220000Y-40243750I0J-243750D01*
G01*
X76220000Y-40731250D01*
G75*
G02*
X75976250Y-40975000I-243750J0D01*
G01*
X75063750Y-40975000D01*
G75*
G02*
X74820000Y-40731250I0J243750D01*
G01*
X74820000Y-40243750D01*
G75*
G02*
X75063750Y-40000000I243750J0D01*
G01*
G37*
G36*
G01*
X75063750Y-38125000D02*
X75976250Y-38125000D01*
G75*
G02*
X76220000Y-38368750I0J-243750D01*
G01*
X76220000Y-38856250D01*
G75*
G02*
X75976250Y-39100000I-243750J0D01*
G01*
X75063750Y-39100000D01*
G75*
G02*
X74820000Y-38856250I0J243750D01*
G01*
X74820000Y-38368750D01*
G75*
G02*
X75063750Y-38125000I243750J0D01*
G01*
G37*
%TD*%
%TO.C,C2*%
G36*
G01*
X77990000Y-33182500D02*
X77990000Y-32837500D01*
G75*
G02*
X78137500Y-32690000I147500J0D01*
G01*
X78432500Y-32690000D01*
G75*
G02*
X78580000Y-32837500I0J-147500D01*
G01*
X78580000Y-33182500D01*
G75*
G02*
X78432500Y-33330000I-147500J0D01*
G01*
X78137500Y-33330000D01*
G75*
G02*
X77990000Y-33182500I0J147500D01*
G01*
G37*
G36*
G01*
X77020000Y-33182500D02*
X77020000Y-32837500D01*
G75*
G02*
X77167500Y-32690000I147500J0D01*
G01*
X77462500Y-32690000D01*
G75*
G02*
X77610000Y-32837500I0J-147500D01*
G01*
X77610000Y-33182500D01*
G75*
G02*
X77462500Y-33330000I-147500J0D01*
G01*
X77167500Y-33330000D01*
G75*
G02*
X77020000Y-33182500I0J147500D01*
G01*
G37*
%TD*%
%TO.C,C1*%
G36*
G01*
X78830000Y-38977500D02*
X78830000Y-39322500D01*
G75*
G02*
X78682500Y-39470000I-147500J0D01*
G01*
X78387500Y-39470000D01*
G75*
G02*
X78240000Y-39322500I0J147500D01*
G01*
X78240000Y-38977500D01*
G75*
G02*
X78387500Y-38830000I147500J0D01*
G01*
X78682500Y-38830000D01*
G75*
G02*
X78830000Y-38977500I0J-147500D01*
G01*
G37*
G36*
G01*
X79800000Y-38977500D02*
X79800000Y-39322500D01*
G75*
G02*
X79652500Y-39470000I-147500J0D01*
G01*
X79357500Y-39470000D01*
G75*
G02*
X79210000Y-39322500I0J147500D01*
G01*
X79210000Y-38977500D01*
G75*
G02*
X79357500Y-38830000I147500J0D01*
G01*
X79652500Y-38830000D01*
G75*
G02*
X79800000Y-38977500I0J-147500D01*
G01*
G37*
%TD*%
M02*
