M48
INCH,TZ
T1C0.0118
T2C0.0256
T3C0.0394
%
G90
G05
T1
X27766Y-16465
X27945Y-12122
X28331Y-12945
X28480Y-13764
X28559Y-16461
X28602Y-12945
X28732Y-15556
X28736Y-13760
X29102Y-14398
X29106Y-13291
X29209Y-14177
X29433Y-12551
X29441Y-14799
X29445Y-14571
X29697Y-15472
X29847Y-12920
X29984Y-13866
X29984Y-14276
X30169Y-14079
X30341Y-12658
X30362Y-13870
X30366Y-14280
X30614Y-12079
X30626Y-13299
X30656Y-12681
X30657Y-14652
X30705Y-15787
X30724Y-16264
X30736Y-14890
X30850Y-13547
X31154Y-14181
X31157Y-14421
X31437Y-12551
X31455Y-13939
X31496Y-16248
X31831Y-15567
T2
X32161Y-12783
X32161Y-13283
X32161Y-13783
X32161Y-14283
X32161Y-14783
X32161Y-15283
X32161Y-15783
T3
X27559Y-12567
X27559Y-13567
X29118Y-16724
X30118Y-16724
X31118Y-16724
X27559Y-14717
X27559Y-15717
X29118Y-11823
X30118Y-11823
X31118Y-11823
T0
M30
