%TF.GenerationSoftware,KiCad,Pcbnew,(5.1.6-0-10_14)*%
%TF.CreationDate,2020-12-19T22:37:24+01:00*%
%TF.ProjectId,ESCv2,45534376-322e-46b6-9963-61645f706362,v0.1*%
%TF.SameCoordinates,Original*%
%TF.FileFunction,Copper,L1,Top*%
%TF.FilePolarity,Positive*%
%FSLAX46Y46*%
G04 Gerber Fmt 4.6, Leading zero omitted, Abs format (unit mm)*
G04 Created by KiCad (PCBNEW (5.1.6-0-10_14)) date 2020-12-19 22:37:24*
%MOMM*%
%LPD*%
G01*
G04 APERTURE LIST*
%TA.AperFunction,ComponentPad*%
%ADD10O,1.700000X1.700000*%
%TD*%
%TA.AperFunction,ComponentPad*%
%ADD11R,1.700000X1.700000*%
%TD*%
%TA.AperFunction,ComponentPad*%
%ADD12O,1.000000X1.000000*%
%TD*%
%TA.AperFunction,ComponentPad*%
%ADD13R,1.000000X1.000000*%
%TD*%
%TA.AperFunction,SMDPad,CuDef*%
%ADD14R,1.800000X1.800000*%
%TD*%
%TA.AperFunction,ViaPad*%
%ADD15C,0.600000*%
%TD*%
%TA.AperFunction,Conductor*%
%ADD16C,1.000000*%
%TD*%
%TA.AperFunction,Conductor*%
%ADD17C,0.700000*%
%TD*%
%TA.AperFunction,Conductor*%
%ADD18C,0.300000*%
%TD*%
%TA.AperFunction,Conductor*%
%ADD19C,0.600000*%
%TD*%
G04 APERTURE END LIST*
%TO.P,D1,2*%
%TO.N,VDD*%
%TA.AperFunction,SMDPad,CuDef*%
G36*
G01*
X71910000Y-30627500D02*
X71910000Y-30972500D01*
G75*
G02*
X71762500Y-31120000I-147500J0D01*
G01*
X71467500Y-31120000D01*
G75*
G02*
X71320000Y-30972500I0J147500D01*
G01*
X71320000Y-30627500D01*
G75*
G02*
X71467500Y-30480000I147500J0D01*
G01*
X71762500Y-30480000D01*
G75*
G02*
X71910000Y-30627500I0J-147500D01*
G01*
G37*
%TD.AperFunction*%
%TO.P,D1,1*%
%TO.N,Net-(D1-Pad1)*%
%TA.AperFunction,SMDPad,CuDef*%
G36*
G01*
X72880000Y-30627500D02*
X72880000Y-30972500D01*
G75*
G02*
X72732500Y-31120000I-147500J0D01*
G01*
X72437500Y-31120000D01*
G75*
G02*
X72290000Y-30972500I0J147500D01*
G01*
X72290000Y-30627500D01*
G75*
G02*
X72437500Y-30480000I147500J0D01*
G01*
X72732500Y-30480000D01*
G75*
G02*
X72880000Y-30627500I0J-147500D01*
G01*
G37*
%TD.AperFunction*%
%TD*%
%TO.P,D2,2*%
%TO.N,VS*%
%TA.AperFunction,SMDPad,CuDef*%
G36*
G01*
X71710000Y-41982500D02*
X71710000Y-41637500D01*
G75*
G02*
X71857500Y-41490000I147500J0D01*
G01*
X72152500Y-41490000D01*
G75*
G02*
X72300000Y-41637500I0J-147500D01*
G01*
X72300000Y-41982500D01*
G75*
G02*
X72152500Y-42130000I-147500J0D01*
G01*
X71857500Y-42130000D01*
G75*
G02*
X71710000Y-41982500I0J147500D01*
G01*
G37*
%TD.AperFunction*%
%TO.P,D2,1*%
%TO.N,Net-(D2-Pad1)*%
%TA.AperFunction,SMDPad,CuDef*%
G36*
G01*
X70740000Y-41982500D02*
X70740000Y-41637500D01*
G75*
G02*
X70887500Y-41490000I147500J0D01*
G01*
X71182500Y-41490000D01*
G75*
G02*
X71330000Y-41637500I0J-147500D01*
G01*
X71330000Y-41982500D01*
G75*
G02*
X71182500Y-42130000I-147500J0D01*
G01*
X70887500Y-42130000D01*
G75*
G02*
X70740000Y-41982500I0J147500D01*
G01*
G37*
%TD.AperFunction*%
%TD*%
D10*
%TO.P,Motor1,3*%
%TO.N,MOTOR3*%
X79040000Y-42480000D03*
%TO.P,Motor1,2*%
%TO.N,MOTOR2*%
X76500000Y-42480000D03*
D11*
%TO.P,Motor1,1*%
%TO.N,MOTOR1*%
X73960000Y-42480000D03*
%TD*%
D12*
%TO.P,J3,7*%
%TO.N,EN*%
X81690000Y-40090000D03*
%TO.P,J3,6*%
%TO.N,EN_FLT*%
X81690000Y-38820000D03*
%TO.P,J3,5*%
%TO.N,ENW*%
X81690000Y-37550000D03*
%TO.P,J3,4*%
%TO.N,ENV*%
X81690000Y-36280000D03*
%TO.P,J3,3*%
%TO.N,ENU*%
X81690000Y-35010000D03*
%TO.P,J3,2*%
%TO.N,STBY_RST*%
X81690000Y-33740000D03*
D13*
%TO.P,J3,1*%
%TO.N,VBATOUT*%
X81690000Y-32470000D03*
%TD*%
D10*
%TO.P,J1,2*%
%TO.N,GNDPWR*%
X70000000Y-39920000D03*
D11*
%TO.P,J1,1*%
%TO.N,VS*%
X70000000Y-37380000D03*
%TD*%
D10*
%TO.P,J5,2*%
%TO.N,GNDPWR*%
X70000000Y-31920000D03*
D11*
%TO.P,J5,1*%
%TO.N,VDD*%
X70000000Y-34460000D03*
%TD*%
D10*
%TO.P,J2,3*%
%TO.N,INW*%
X79040000Y-30030000D03*
%TO.P,J2,2*%
%TO.N,INV*%
X76500000Y-30030000D03*
D11*
%TO.P,J2,1*%
%TO.N,INU*%
X73960000Y-30030000D03*
%TD*%
D14*
%TO.P,U1,17*%
%TO.N,GNDPWR*%
X76640000Y-35750000D03*
%TO.P,U1,16*%
%TO.N,ENV*%
%TA.AperFunction,SMDPad,CuDef*%
G36*
G01*
X75765000Y-34587500D02*
X75765000Y-33937500D01*
G75*
G02*
X75827500Y-33875000I62500J0D01*
G01*
X75952500Y-33875000D01*
G75*
G02*
X76015000Y-33937500I0J-62500D01*
G01*
X76015000Y-34587500D01*
G75*
G02*
X75952500Y-34650000I-62500J0D01*
G01*
X75827500Y-34650000D01*
G75*
G02*
X75765000Y-34587500I0J62500D01*
G01*
G37*
%TD.AperFunction*%
%TO.P,U1,15*%
%TO.N,INV*%
%TA.AperFunction,SMDPad,CuDef*%
G36*
G01*
X76265000Y-34587500D02*
X76265000Y-33937500D01*
G75*
G02*
X76327500Y-33875000I62500J0D01*
G01*
X76452500Y-33875000D01*
G75*
G02*
X76515000Y-33937500I0J-62500D01*
G01*
X76515000Y-34587500D01*
G75*
G02*
X76452500Y-34650000I-62500J0D01*
G01*
X76327500Y-34650000D01*
G75*
G02*
X76265000Y-34587500I0J62500D01*
G01*
G37*
%TD.AperFunction*%
%TO.P,U1,14*%
%TO.N,STBY_RST*%
%TA.AperFunction,SMDPad,CuDef*%
G36*
G01*
X76765000Y-34587500D02*
X76765000Y-33937500D01*
G75*
G02*
X76827500Y-33875000I62500J0D01*
G01*
X76952500Y-33875000D01*
G75*
G02*
X77015000Y-33937500I0J-62500D01*
G01*
X77015000Y-34587500D01*
G75*
G02*
X76952500Y-34650000I-62500J0D01*
G01*
X76827500Y-34650000D01*
G75*
G02*
X76765000Y-34587500I0J62500D01*
G01*
G37*
%TD.AperFunction*%
%TO.P,U1,13*%
%TO.N,EN_FLT*%
%TA.AperFunction,SMDPad,CuDef*%
G36*
G01*
X77265000Y-34587500D02*
X77265000Y-33937500D01*
G75*
G02*
X77327500Y-33875000I62500J0D01*
G01*
X77452500Y-33875000D01*
G75*
G02*
X77515000Y-33937500I0J-62500D01*
G01*
X77515000Y-34587500D01*
G75*
G02*
X77452500Y-34650000I-62500J0D01*
G01*
X77327500Y-34650000D01*
G75*
G02*
X77265000Y-34587500I0J62500D01*
G01*
G37*
%TD.AperFunction*%
%TO.P,U1,12*%
%TO.N,ENW*%
%TA.AperFunction,SMDPad,CuDef*%
G36*
G01*
X77740000Y-35062500D02*
X77740000Y-34937500D01*
G75*
G02*
X77802500Y-34875000I62500J0D01*
G01*
X78452500Y-34875000D01*
G75*
G02*
X78515000Y-34937500I0J-62500D01*
G01*
X78515000Y-35062500D01*
G75*
G02*
X78452500Y-35125000I-62500J0D01*
G01*
X77802500Y-35125000D01*
G75*
G02*
X77740000Y-35062500I0J62500D01*
G01*
G37*
%TD.AperFunction*%
%TO.P,U1,11*%
%TO.N,INW*%
%TA.AperFunction,SMDPad,CuDef*%
G36*
G01*
X77740000Y-35562500D02*
X77740000Y-35437500D01*
G75*
G02*
X77802500Y-35375000I62500J0D01*
G01*
X78452500Y-35375000D01*
G75*
G02*
X78515000Y-35437500I0J-62500D01*
G01*
X78515000Y-35562500D01*
G75*
G02*
X78452500Y-35625000I-62500J0D01*
G01*
X77802500Y-35625000D01*
G75*
G02*
X77740000Y-35562500I0J62500D01*
G01*
G37*
%TD.AperFunction*%
%TO.P,U1,10*%
%TO.N,MOTOR3*%
%TA.AperFunction,SMDPad,CuDef*%
G36*
G01*
X77740000Y-36062500D02*
X77740000Y-35937500D01*
G75*
G02*
X77802500Y-35875000I62500J0D01*
G01*
X78452500Y-35875000D01*
G75*
G02*
X78515000Y-35937500I0J-62500D01*
G01*
X78515000Y-36062500D01*
G75*
G02*
X78452500Y-36125000I-62500J0D01*
G01*
X77802500Y-36125000D01*
G75*
G02*
X77740000Y-36062500I0J62500D01*
G01*
G37*
%TD.AperFunction*%
%TO.P,U1,9*%
%TO.N,GNDPWR*%
%TA.AperFunction,SMDPad,CuDef*%
G36*
G01*
X77740000Y-36562500D02*
X77740000Y-36437500D01*
G75*
G02*
X77802500Y-36375000I62500J0D01*
G01*
X78452500Y-36375000D01*
G75*
G02*
X78515000Y-36437500I0J-62500D01*
G01*
X78515000Y-36562500D01*
G75*
G02*
X78452500Y-36625000I-62500J0D01*
G01*
X77802500Y-36625000D01*
G75*
G02*
X77740000Y-36562500I0J62500D01*
G01*
G37*
%TD.AperFunction*%
%TO.P,U1,8*%
%TA.AperFunction,SMDPad,CuDef*%
G36*
G01*
X77265000Y-37562500D02*
X77265000Y-36912500D01*
G75*
G02*
X77327500Y-36850000I62500J0D01*
G01*
X77452500Y-36850000D01*
G75*
G02*
X77515000Y-36912500I0J-62500D01*
G01*
X77515000Y-37562500D01*
G75*
G02*
X77452500Y-37625000I-62500J0D01*
G01*
X77327500Y-37625000D01*
G75*
G02*
X77265000Y-37562500I0J62500D01*
G01*
G37*
%TD.AperFunction*%
%TO.P,U1,7*%
%TO.N,MOTOR2*%
%TA.AperFunction,SMDPad,CuDef*%
G36*
G01*
X76765000Y-37562500D02*
X76765000Y-36912500D01*
G75*
G02*
X76827500Y-36850000I62500J0D01*
G01*
X76952500Y-36850000D01*
G75*
G02*
X77015000Y-36912500I0J-62500D01*
G01*
X77015000Y-37562500D01*
G75*
G02*
X76952500Y-37625000I-62500J0D01*
G01*
X76827500Y-37625000D01*
G75*
G02*
X76765000Y-37562500I0J62500D01*
G01*
G37*
%TD.AperFunction*%
%TO.P,U1,6*%
%TO.N,GNDPWR*%
%TA.AperFunction,SMDPad,CuDef*%
G36*
G01*
X76265000Y-37562500D02*
X76265000Y-36912500D01*
G75*
G02*
X76327500Y-36850000I62500J0D01*
G01*
X76452500Y-36850000D01*
G75*
G02*
X76515000Y-36912500I0J-62500D01*
G01*
X76515000Y-37562500D01*
G75*
G02*
X76452500Y-37625000I-62500J0D01*
G01*
X76327500Y-37625000D01*
G75*
G02*
X76265000Y-37562500I0J62500D01*
G01*
G37*
%TD.AperFunction*%
%TO.P,U1,5*%
%TO.N,VS*%
%TA.AperFunction,SMDPad,CuDef*%
G36*
G01*
X75765000Y-37562500D02*
X75765000Y-36912500D01*
G75*
G02*
X75827500Y-36850000I62500J0D01*
G01*
X75952500Y-36850000D01*
G75*
G02*
X76015000Y-36912500I0J-62500D01*
G01*
X76015000Y-37562500D01*
G75*
G02*
X75952500Y-37625000I-62500J0D01*
G01*
X75827500Y-37625000D01*
G75*
G02*
X75765000Y-37562500I0J62500D01*
G01*
G37*
%TD.AperFunction*%
%TO.P,U1,4*%
%TO.N,GNDPWR*%
%TA.AperFunction,SMDPad,CuDef*%
G36*
G01*
X74765000Y-36562500D02*
X74765000Y-36437500D01*
G75*
G02*
X74827500Y-36375000I62500J0D01*
G01*
X75477500Y-36375000D01*
G75*
G02*
X75540000Y-36437500I0J-62500D01*
G01*
X75540000Y-36562500D01*
G75*
G02*
X75477500Y-36625000I-62500J0D01*
G01*
X74827500Y-36625000D01*
G75*
G02*
X74765000Y-36562500I0J62500D01*
G01*
G37*
%TD.AperFunction*%
%TO.P,U1,3*%
%TO.N,MOTOR1*%
%TA.AperFunction,SMDPad,CuDef*%
G36*
G01*
X74765000Y-36062500D02*
X74765000Y-35937500D01*
G75*
G02*
X74827500Y-35875000I62500J0D01*
G01*
X75477500Y-35875000D01*
G75*
G02*
X75540000Y-35937500I0J-62500D01*
G01*
X75540000Y-36062500D01*
G75*
G02*
X75477500Y-36125000I-62500J0D01*
G01*
X74827500Y-36125000D01*
G75*
G02*
X74765000Y-36062500I0J62500D01*
G01*
G37*
%TD.AperFunction*%
%TO.P,U1,2*%
%TO.N,ENU*%
%TA.AperFunction,SMDPad,CuDef*%
G36*
G01*
X74765000Y-35562500D02*
X74765000Y-35437500D01*
G75*
G02*
X74827500Y-35375000I62500J0D01*
G01*
X75477500Y-35375000D01*
G75*
G02*
X75540000Y-35437500I0J-62500D01*
G01*
X75540000Y-35562500D01*
G75*
G02*
X75477500Y-35625000I-62500J0D01*
G01*
X74827500Y-35625000D01*
G75*
G02*
X74765000Y-35562500I0J62500D01*
G01*
G37*
%TD.AperFunction*%
%TO.P,U1,1*%
%TO.N,INU*%
%TA.AperFunction,SMDPad,CuDef*%
G36*
G01*
X74765000Y-35062500D02*
X74765000Y-34937500D01*
G75*
G02*
X74827500Y-34875000I62500J0D01*
G01*
X75477500Y-34875000D01*
G75*
G02*
X75540000Y-34937500I0J-62500D01*
G01*
X75540000Y-35062500D01*
G75*
G02*
X75477500Y-35125000I-62500J0D01*
G01*
X74827500Y-35125000D01*
G75*
G02*
X74765000Y-35062500I0J62500D01*
G01*
G37*
%TD.AperFunction*%
%TD*%
%TO.P,R12,2*%
%TO.N,VBATOUT*%
%TA.AperFunction,SMDPad,CuDef*%
G36*
G01*
X80327500Y-32850000D02*
X80672500Y-32850000D01*
G75*
G02*
X80820000Y-32997500I0J-147500D01*
G01*
X80820000Y-33292500D01*
G75*
G02*
X80672500Y-33440000I-147500J0D01*
G01*
X80327500Y-33440000D01*
G75*
G02*
X80180000Y-33292500I0J147500D01*
G01*
X80180000Y-32997500D01*
G75*
G02*
X80327500Y-32850000I147500J0D01*
G01*
G37*
%TD.AperFunction*%
%TO.P,R12,1*%
%TO.N,GNDPWR*%
%TA.AperFunction,SMDPad,CuDef*%
G36*
G01*
X80327500Y-31880000D02*
X80672500Y-31880000D01*
G75*
G02*
X80820000Y-32027500I0J-147500D01*
G01*
X80820000Y-32322500D01*
G75*
G02*
X80672500Y-32470000I-147500J0D01*
G01*
X80327500Y-32470000D01*
G75*
G02*
X80180000Y-32322500I0J147500D01*
G01*
X80180000Y-32027500D01*
G75*
G02*
X80327500Y-31880000I147500J0D01*
G01*
G37*
%TD.AperFunction*%
%TD*%
%TO.P,R11,2*%
%TO.N,VS*%
%TA.AperFunction,SMDPad,CuDef*%
G36*
G01*
X78812500Y-40390000D02*
X78467500Y-40390000D01*
G75*
G02*
X78320000Y-40242500I0J147500D01*
G01*
X78320000Y-39947500D01*
G75*
G02*
X78467500Y-39800000I147500J0D01*
G01*
X78812500Y-39800000D01*
G75*
G02*
X78960000Y-39947500I0J-147500D01*
G01*
X78960000Y-40242500D01*
G75*
G02*
X78812500Y-40390000I-147500J0D01*
G01*
G37*
%TD.AperFunction*%
%TO.P,R11,1*%
%TO.N,VBATOUT*%
%TA.AperFunction,SMDPad,CuDef*%
G36*
G01*
X78812500Y-41360000D02*
X78467500Y-41360000D01*
G75*
G02*
X78320000Y-41212500I0J147500D01*
G01*
X78320000Y-40917500D01*
G75*
G02*
X78467500Y-40770000I147500J0D01*
G01*
X78812500Y-40770000D01*
G75*
G02*
X78960000Y-40917500I0J-147500D01*
G01*
X78960000Y-41212500D01*
G75*
G02*
X78812500Y-41360000I-147500J0D01*
G01*
G37*
%TD.AperFunction*%
%TD*%
%TO.P,R8,2*%
%TO.N,VDD*%
%TA.AperFunction,SMDPad,CuDef*%
G36*
G01*
X80980000Y-41187500D02*
X80980000Y-41532500D01*
G75*
G02*
X80832500Y-41680000I-147500J0D01*
G01*
X80537500Y-41680000D01*
G75*
G02*
X80390000Y-41532500I0J147500D01*
G01*
X80390000Y-41187500D01*
G75*
G02*
X80537500Y-41040000I147500J0D01*
G01*
X80832500Y-41040000D01*
G75*
G02*
X80980000Y-41187500I0J-147500D01*
G01*
G37*
%TD.AperFunction*%
%TO.P,R8,1*%
%TO.N,EN*%
%TA.AperFunction,SMDPad,CuDef*%
G36*
G01*
X81950000Y-41187500D02*
X81950000Y-41532500D01*
G75*
G02*
X81802500Y-41680000I-147500J0D01*
G01*
X81507500Y-41680000D01*
G75*
G02*
X81360000Y-41532500I0J147500D01*
G01*
X81360000Y-41187500D01*
G75*
G02*
X81507500Y-41040000I147500J0D01*
G01*
X81802500Y-41040000D01*
G75*
G02*
X81950000Y-41187500I0J-147500D01*
G01*
G37*
%TD.AperFunction*%
%TD*%
%TO.P,R7,2*%
%TO.N,Net-(D2-Pad1)*%
%TA.AperFunction,SMDPad,CuDef*%
G36*
G01*
X73757500Y-32540000D02*
X74102500Y-32540000D01*
G75*
G02*
X74250000Y-32687500I0J-147500D01*
G01*
X74250000Y-32982500D01*
G75*
G02*
X74102500Y-33130000I-147500J0D01*
G01*
X73757500Y-33130000D01*
G75*
G02*
X73610000Y-32982500I0J147500D01*
G01*
X73610000Y-32687500D01*
G75*
G02*
X73757500Y-32540000I147500J0D01*
G01*
G37*
%TD.AperFunction*%
%TO.P,R7,1*%
%TO.N,GNDPWR*%
%TA.AperFunction,SMDPad,CuDef*%
G36*
G01*
X73757500Y-31570000D02*
X74102500Y-31570000D01*
G75*
G02*
X74250000Y-31717500I0J-147500D01*
G01*
X74250000Y-32012500D01*
G75*
G02*
X74102500Y-32160000I-147500J0D01*
G01*
X73757500Y-32160000D01*
G75*
G02*
X73610000Y-32012500I0J147500D01*
G01*
X73610000Y-31717500D01*
G75*
G02*
X73757500Y-31570000I147500J0D01*
G01*
G37*
%TD.AperFunction*%
%TD*%
%TO.P,R6,2*%
%TO.N,Net-(D1-Pad1)*%
%TA.AperFunction,SMDPad,CuDef*%
G36*
G01*
X72320000Y-31647500D02*
X72320000Y-31992500D01*
G75*
G02*
X72172500Y-32140000I-147500J0D01*
G01*
X71877500Y-32140000D01*
G75*
G02*
X71730000Y-31992500I0J147500D01*
G01*
X71730000Y-31647500D01*
G75*
G02*
X71877500Y-31500000I147500J0D01*
G01*
X72172500Y-31500000D01*
G75*
G02*
X72320000Y-31647500I0J-147500D01*
G01*
G37*
%TD.AperFunction*%
%TO.P,R6,1*%
%TO.N,GNDPWR*%
%TA.AperFunction,SMDPad,CuDef*%
G36*
G01*
X73290000Y-31647500D02*
X73290000Y-31992500D01*
G75*
G02*
X73142500Y-32140000I-147500J0D01*
G01*
X72847500Y-32140000D01*
G75*
G02*
X72700000Y-31992500I0J147500D01*
G01*
X72700000Y-31647500D01*
G75*
G02*
X72847500Y-31500000I147500J0D01*
G01*
X73142500Y-31500000D01*
G75*
G02*
X73290000Y-31647500I0J-147500D01*
G01*
G37*
%TD.AperFunction*%
%TD*%
%TO.P,R5,2*%
%TO.N,ENU*%
%TA.AperFunction,SMDPad,CuDef*%
G36*
G01*
X80380000Y-34482500D02*
X80380000Y-34137500D01*
G75*
G02*
X80527500Y-33990000I147500J0D01*
G01*
X80822500Y-33990000D01*
G75*
G02*
X80970000Y-34137500I0J-147500D01*
G01*
X80970000Y-34482500D01*
G75*
G02*
X80822500Y-34630000I-147500J0D01*
G01*
X80527500Y-34630000D01*
G75*
G02*
X80380000Y-34482500I0J147500D01*
G01*
G37*
%TD.AperFunction*%
%TO.P,R5,1*%
%TO.N,VDD*%
%TA.AperFunction,SMDPad,CuDef*%
G36*
G01*
X79410000Y-34482500D02*
X79410000Y-34137500D01*
G75*
G02*
X79557500Y-33990000I147500J0D01*
G01*
X79852500Y-33990000D01*
G75*
G02*
X80000000Y-34137500I0J-147500D01*
G01*
X80000000Y-34482500D01*
G75*
G02*
X79852500Y-34630000I-147500J0D01*
G01*
X79557500Y-34630000D01*
G75*
G02*
X79410000Y-34482500I0J147500D01*
G01*
G37*
%TD.AperFunction*%
%TD*%
%TO.P,R4,2*%
%TO.N,ENV*%
%TA.AperFunction,SMDPad,CuDef*%
G36*
G01*
X80752500Y-36400000D02*
X80407500Y-36400000D01*
G75*
G02*
X80260000Y-36252500I0J147500D01*
G01*
X80260000Y-35957500D01*
G75*
G02*
X80407500Y-35810000I147500J0D01*
G01*
X80752500Y-35810000D01*
G75*
G02*
X80900000Y-35957500I0J-147500D01*
G01*
X80900000Y-36252500D01*
G75*
G02*
X80752500Y-36400000I-147500J0D01*
G01*
G37*
%TD.AperFunction*%
%TO.P,R4,1*%
%TO.N,VDD*%
%TA.AperFunction,SMDPad,CuDef*%
G36*
G01*
X80752500Y-37370000D02*
X80407500Y-37370000D01*
G75*
G02*
X80260000Y-37222500I0J147500D01*
G01*
X80260000Y-36927500D01*
G75*
G02*
X80407500Y-36780000I147500J0D01*
G01*
X80752500Y-36780000D01*
G75*
G02*
X80900000Y-36927500I0J-147500D01*
G01*
X80900000Y-37222500D01*
G75*
G02*
X80752500Y-37370000I-147500J0D01*
G01*
G37*
%TD.AperFunction*%
%TD*%
%TO.P,R3,2*%
%TO.N,ENW*%
%TA.AperFunction,SMDPad,CuDef*%
G36*
G01*
X80190000Y-38252500D02*
X80190000Y-37907500D01*
G75*
G02*
X80337500Y-37760000I147500J0D01*
G01*
X80632500Y-37760000D01*
G75*
G02*
X80780000Y-37907500I0J-147500D01*
G01*
X80780000Y-38252500D01*
G75*
G02*
X80632500Y-38400000I-147500J0D01*
G01*
X80337500Y-38400000D01*
G75*
G02*
X80190000Y-38252500I0J147500D01*
G01*
G37*
%TD.AperFunction*%
%TO.P,R3,1*%
%TO.N,VDD*%
%TA.AperFunction,SMDPad,CuDef*%
G36*
G01*
X79220000Y-38252500D02*
X79220000Y-37907500D01*
G75*
G02*
X79367500Y-37760000I147500J0D01*
G01*
X79662500Y-37760000D01*
G75*
G02*
X79810000Y-37907500I0J-147500D01*
G01*
X79810000Y-38252500D01*
G75*
G02*
X79662500Y-38400000I-147500J0D01*
G01*
X79367500Y-38400000D01*
G75*
G02*
X79220000Y-38252500I0J147500D01*
G01*
G37*
%TD.AperFunction*%
%TD*%
%TO.P,R2,2*%
%TO.N,VDD*%
%TA.AperFunction,SMDPad,CuDef*%
G36*
G01*
X77910000Y-31562500D02*
X77910000Y-31217500D01*
G75*
G02*
X78057500Y-31070000I147500J0D01*
G01*
X78352500Y-31070000D01*
G75*
G02*
X78500000Y-31217500I0J-147500D01*
G01*
X78500000Y-31562500D01*
G75*
G02*
X78352500Y-31710000I-147500J0D01*
G01*
X78057500Y-31710000D01*
G75*
G02*
X77910000Y-31562500I0J147500D01*
G01*
G37*
%TD.AperFunction*%
%TO.P,R2,1*%
%TO.N,STBY_RST*%
%TA.AperFunction,SMDPad,CuDef*%
G36*
G01*
X76940000Y-31562500D02*
X76940000Y-31217500D01*
G75*
G02*
X77087500Y-31070000I147500J0D01*
G01*
X77382500Y-31070000D01*
G75*
G02*
X77530000Y-31217500I0J-147500D01*
G01*
X77530000Y-31562500D01*
G75*
G02*
X77382500Y-31710000I-147500J0D01*
G01*
X77087500Y-31710000D01*
G75*
G02*
X76940000Y-31562500I0J147500D01*
G01*
G37*
%TD.AperFunction*%
%TD*%
%TO.P,R1,2*%
%TO.N,EN*%
%TA.AperFunction,SMDPad,CuDef*%
G36*
G01*
X80250000Y-40532500D02*
X80250000Y-40187500D01*
G75*
G02*
X80397500Y-40040000I147500J0D01*
G01*
X80692500Y-40040000D01*
G75*
G02*
X80840000Y-40187500I0J-147500D01*
G01*
X80840000Y-40532500D01*
G75*
G02*
X80692500Y-40680000I-147500J0D01*
G01*
X80397500Y-40680000D01*
G75*
G02*
X80250000Y-40532500I0J147500D01*
G01*
G37*
%TD.AperFunction*%
%TO.P,R1,1*%
%TO.N,EN_FLT*%
%TA.AperFunction,SMDPad,CuDef*%
G36*
G01*
X79280000Y-40532500D02*
X79280000Y-40187500D01*
G75*
G02*
X79427500Y-40040000I147500J0D01*
G01*
X79722500Y-40040000D01*
G75*
G02*
X79870000Y-40187500I0J-147500D01*
G01*
X79870000Y-40532500D01*
G75*
G02*
X79722500Y-40680000I-147500J0D01*
G01*
X79427500Y-40680000D01*
G75*
G02*
X79280000Y-40532500I0J147500D01*
G01*
G37*
%TD.AperFunction*%
%TD*%
%TO.P,C13,2*%
%TO.N,GNDPWR*%
%TA.AperFunction,SMDPad,CuDef*%
G36*
G01*
X80760000Y-30917500D02*
X80760000Y-31262500D01*
G75*
G02*
X80612500Y-31410000I-147500J0D01*
G01*
X80317500Y-31410000D01*
G75*
G02*
X80170000Y-31262500I0J147500D01*
G01*
X80170000Y-30917500D01*
G75*
G02*
X80317500Y-30770000I147500J0D01*
G01*
X80612500Y-30770000D01*
G75*
G02*
X80760000Y-30917500I0J-147500D01*
G01*
G37*
%TD.AperFunction*%
%TO.P,C13,1*%
%TO.N,VBATOUT*%
%TA.AperFunction,SMDPad,CuDef*%
G36*
G01*
X81730000Y-30917500D02*
X81730000Y-31262500D01*
G75*
G02*
X81582500Y-31410000I-147500J0D01*
G01*
X81287500Y-31410000D01*
G75*
G02*
X81140000Y-31262500I0J147500D01*
G01*
X81140000Y-30917500D01*
G75*
G02*
X81287500Y-30770000I147500J0D01*
G01*
X81582500Y-30770000D01*
G75*
G02*
X81730000Y-30917500I0J-147500D01*
G01*
G37*
%TD.AperFunction*%
%TD*%
%TO.P,C4,2*%
%TO.N,GNDPWR*%
%TA.AperFunction,SMDPad,CuDef*%
G36*
G01*
X72965000Y-34555000D02*
X71715000Y-34555000D01*
G75*
G02*
X71465000Y-34305000I0J250000D01*
G01*
X71465000Y-33555000D01*
G75*
G02*
X71715000Y-33305000I250000J0D01*
G01*
X72965000Y-33305000D01*
G75*
G02*
X73215000Y-33555000I0J-250000D01*
G01*
X73215000Y-34305000D01*
G75*
G02*
X72965000Y-34555000I-250000J0D01*
G01*
G37*
%TD.AperFunction*%
%TO.P,C4,1*%
%TO.N,VS*%
%TA.AperFunction,SMDPad,CuDef*%
G36*
G01*
X72965000Y-37355000D02*
X71715000Y-37355000D01*
G75*
G02*
X71465000Y-37105000I0J250000D01*
G01*
X71465000Y-36355000D01*
G75*
G02*
X71715000Y-36105000I250000J0D01*
G01*
X72965000Y-36105000D01*
G75*
G02*
X73215000Y-36355000I0J-250000D01*
G01*
X73215000Y-37105000D01*
G75*
G02*
X72965000Y-37355000I-250000J0D01*
G01*
G37*
%TD.AperFunction*%
%TD*%
%TO.P,C3,2*%
%TO.N,GNDPWR*%
%TA.AperFunction,SMDPad,CuDef*%
G36*
G01*
X75063750Y-40000000D02*
X75976250Y-40000000D01*
G75*
G02*
X76220000Y-40243750I0J-243750D01*
G01*
X76220000Y-40731250D01*
G75*
G02*
X75976250Y-40975000I-243750J0D01*
G01*
X75063750Y-40975000D01*
G75*
G02*
X74820000Y-40731250I0J243750D01*
G01*
X74820000Y-40243750D01*
G75*
G02*
X75063750Y-40000000I243750J0D01*
G01*
G37*
%TD.AperFunction*%
%TO.P,C3,1*%
%TO.N,VS*%
%TA.AperFunction,SMDPad,CuDef*%
G36*
G01*
X75063750Y-38125000D02*
X75976250Y-38125000D01*
G75*
G02*
X76220000Y-38368750I0J-243750D01*
G01*
X76220000Y-38856250D01*
G75*
G02*
X75976250Y-39100000I-243750J0D01*
G01*
X75063750Y-39100000D01*
G75*
G02*
X74820000Y-38856250I0J243750D01*
G01*
X74820000Y-38368750D01*
G75*
G02*
X75063750Y-38125000I243750J0D01*
G01*
G37*
%TD.AperFunction*%
%TD*%
%TO.P,C2,2*%
%TO.N,GNDPWR*%
%TA.AperFunction,SMDPad,CuDef*%
G36*
G01*
X77990000Y-33182500D02*
X77990000Y-32837500D01*
G75*
G02*
X78137500Y-32690000I147500J0D01*
G01*
X78432500Y-32690000D01*
G75*
G02*
X78580000Y-32837500I0J-147500D01*
G01*
X78580000Y-33182500D01*
G75*
G02*
X78432500Y-33330000I-147500J0D01*
G01*
X78137500Y-33330000D01*
G75*
G02*
X77990000Y-33182500I0J147500D01*
G01*
G37*
%TD.AperFunction*%
%TO.P,C2,1*%
%TO.N,STBY_RST*%
%TA.AperFunction,SMDPad,CuDef*%
G36*
G01*
X77020000Y-33182500D02*
X77020000Y-32837500D01*
G75*
G02*
X77167500Y-32690000I147500J0D01*
G01*
X77462500Y-32690000D01*
G75*
G02*
X77610000Y-32837500I0J-147500D01*
G01*
X77610000Y-33182500D01*
G75*
G02*
X77462500Y-33330000I-147500J0D01*
G01*
X77167500Y-33330000D01*
G75*
G02*
X77020000Y-33182500I0J147500D01*
G01*
G37*
%TD.AperFunction*%
%TD*%
%TO.P,C1,2*%
%TO.N,GNDPWR*%
%TA.AperFunction,SMDPad,CuDef*%
G36*
G01*
X78830000Y-38977500D02*
X78830000Y-39322500D01*
G75*
G02*
X78682500Y-39470000I-147500J0D01*
G01*
X78387500Y-39470000D01*
G75*
G02*
X78240000Y-39322500I0J147500D01*
G01*
X78240000Y-38977500D01*
G75*
G02*
X78387500Y-38830000I147500J0D01*
G01*
X78682500Y-38830000D01*
G75*
G02*
X78830000Y-38977500I0J-147500D01*
G01*
G37*
%TD.AperFunction*%
%TO.P,C1,1*%
%TO.N,EN_FLT*%
%TA.AperFunction,SMDPad,CuDef*%
G36*
G01*
X79800000Y-38977500D02*
X79800000Y-39322500D01*
G75*
G02*
X79652500Y-39470000I-147500J0D01*
G01*
X79357500Y-39470000D01*
G75*
G02*
X79210000Y-39322500I0J147500D01*
G01*
X79210000Y-38977500D01*
G75*
G02*
X79357500Y-38830000I147500J0D01*
G01*
X79652500Y-38830000D01*
G75*
G02*
X79800000Y-38977500I0J-147500D01*
G01*
G37*
%TD.AperFunction*%
%TD*%
D15*
%TO.N,GNDPWR*%
X76160000Y-35220000D03*
X77120000Y-35230000D03*
X76630000Y-35760000D03*
X76160000Y-36260000D03*
X77130000Y-36270000D03*
X72340000Y-34960000D03*
X71960000Y-32880000D03*
X72650000Y-32880000D03*
X72990000Y-34950000D03*
X74790000Y-37010000D03*
X74780000Y-37590000D03*
X77868645Y-37215539D03*
X78070000Y-37819998D03*
X77865193Y-32210263D03*
X79850911Y-31880011D03*
%TO.N,EN_FLT*%
X77790000Y-33780000D03*
%TO.N,STBY_RST*%
X77067375Y-32151065D03*
%TO.N,VS*%
X72540000Y-41810000D03*
X75430000Y-39300000D03*
X77990000Y-40100000D03*
X72980000Y-39512990D03*
%TO.N,VBATOUT*%
X78040000Y-41310000D03*
X80850000Y-39540000D03*
%TO.N,VDD*%
X70980000Y-30790000D03*
X80000000Y-41270000D03*
X79895373Y-35404627D03*
X77760000Y-30680000D03*
%TO.N,Net-(D2-Pad1)*%
X70525000Y-41820000D03*
X73930000Y-33759998D03*
%TO.N,ENW*%
X78360000Y-34410000D03*
%TO.N,ENV*%
X75810750Y-32817905D03*
%TO.N,ENU*%
X74759980Y-31880011D03*
%TO.N,MOTOR3*%
X79130000Y-36020000D03*
X79140000Y-36630000D03*
%TO.N,MOTOR1*%
X74190000Y-36010000D03*
X73920000Y-36570000D03*
%TD*%
D16*
%TO.N,GNDPWR*%
X72340000Y-33930000D02*
X72340000Y-34960000D01*
X72340000Y-33930000D02*
X72340000Y-33260000D01*
X72340000Y-33260000D02*
X71960000Y-32880000D01*
D17*
X72650000Y-32880000D02*
X71960000Y-32880000D01*
X72350000Y-34950000D02*
X72340000Y-34960000D01*
X72990000Y-34950000D02*
X72350000Y-34950000D01*
D18*
X76390000Y-36000000D02*
X76630000Y-35760000D01*
X76390000Y-37237500D02*
X76390000Y-36000000D01*
X75890000Y-36500000D02*
X76640000Y-35750000D01*
X75152500Y-36500000D02*
X75890000Y-36500000D01*
X77390000Y-37237500D02*
X77387500Y-37237500D01*
X77387500Y-36497500D02*
X76640000Y-35750000D01*
X77387500Y-37237500D02*
X77387500Y-36497500D01*
X77370000Y-36500000D02*
X76630000Y-35760000D01*
X78127500Y-36500000D02*
X77370000Y-36500000D01*
X75152500Y-36647500D02*
X74790000Y-37010000D01*
X75152500Y-36500000D02*
X75152500Y-36647500D01*
D19*
X74790000Y-37580000D02*
X74780000Y-37590000D01*
X74790000Y-37010000D02*
X74790000Y-37580000D01*
D18*
X72995000Y-32535000D02*
X72650000Y-32880000D01*
X72995000Y-31820000D02*
X72995000Y-32535000D01*
X73885000Y-31820000D02*
X73930000Y-31865000D01*
X72995000Y-31820000D02*
X73885000Y-31820000D01*
D17*
X78199990Y-36700010D02*
X77868645Y-37031355D01*
X77868645Y-37031355D02*
X77868645Y-37215539D01*
X77630000Y-36790000D02*
X77868645Y-37028645D01*
X77868645Y-37028645D02*
X77868645Y-37215539D01*
X77753106Y-37100000D02*
X77868645Y-37215539D01*
X77565010Y-37100000D02*
X77753106Y-37100000D01*
X77868645Y-37215539D02*
X77868645Y-37618643D01*
D18*
X78535000Y-39150000D02*
X78535000Y-38284998D01*
D17*
X77565010Y-37412510D02*
X77662512Y-37412510D01*
X77662512Y-37412510D02*
X78070000Y-37819998D01*
D18*
X78535000Y-38284998D02*
X78070000Y-37819998D01*
D17*
X77868645Y-37618643D02*
X78070000Y-37819998D01*
D19*
X74790000Y-37010000D02*
X74790000Y-36760000D01*
D18*
X78285000Y-33010000D02*
X78285000Y-32630070D01*
X78285000Y-32630070D02*
X77865193Y-32210263D01*
D19*
X74790000Y-36760000D02*
X74899990Y-36650010D01*
D18*
X80465000Y-31265922D02*
X79850911Y-31880011D01*
X80465000Y-31090000D02*
X80465000Y-31265922D01*
X80145900Y-32175000D02*
X79850911Y-31880011D01*
X80500000Y-32175000D02*
X80145900Y-32175000D01*
D16*
X73533000Y-40513000D02*
X70725010Y-40513000D01*
X73558500Y-40487500D02*
X73533000Y-40513000D01*
X75520000Y-40487500D02*
X73558500Y-40487500D01*
X70132010Y-39920000D02*
X70725010Y-40513000D01*
X70000000Y-39920000D02*
X70132010Y-39920000D01*
D18*
%TO.N,EN_FLT*%
X77427500Y-34262500D02*
X77920000Y-33770000D01*
X77390000Y-34262500D02*
X77427500Y-34262500D01*
X79505000Y-40290000D02*
X79575000Y-40360000D01*
X79505000Y-39150000D02*
X79505000Y-40290000D01*
X79835000Y-38820000D02*
X81690000Y-38820000D01*
X79505000Y-39150000D02*
X79835000Y-38820000D01*
%TO.N,STBY_RST*%
X76890000Y-33435000D02*
X76890000Y-34262500D01*
X77315000Y-33010000D02*
X76890000Y-33435000D01*
X77295000Y-32990000D02*
X77315000Y-33010000D01*
X77315000Y-33010000D02*
X77067375Y-32762375D01*
X77295000Y-31400000D02*
X77067375Y-31627625D01*
X77067375Y-31627625D02*
X77067375Y-32151065D01*
X77067375Y-32762375D02*
X77067375Y-32151065D01*
D16*
%TO.N,VS*%
X73952500Y-38612500D02*
X73820000Y-38480000D01*
X75520000Y-38612500D02*
X73952500Y-38612500D01*
X72340000Y-37000000D02*
X73820000Y-38480000D01*
X72340000Y-36730000D02*
X72340000Y-37000000D01*
D17*
X75520000Y-38612500D02*
X75520000Y-38080000D01*
X75520000Y-38080000D02*
X75650000Y-37950000D01*
X75650000Y-37950000D02*
X75650000Y-37350000D01*
D18*
X72530000Y-41800000D02*
X72540000Y-41810000D01*
X71845000Y-41800000D02*
X72530000Y-41800000D01*
X75430000Y-38702500D02*
X75520000Y-38612500D01*
X75430000Y-39300000D02*
X75430000Y-38702500D01*
X77995000Y-40095000D02*
X77990000Y-40100000D01*
X78640000Y-40095000D02*
X77995000Y-40095000D01*
D16*
X71601000Y-36730000D02*
X71120000Y-37211000D01*
X72340000Y-36730000D02*
X71601000Y-36730000D01*
X71120000Y-37211000D02*
X70725010Y-37211000D01*
D18*
X72980000Y-39320000D02*
X72980000Y-39512990D01*
X73820000Y-38480000D02*
X72980000Y-39320000D01*
%TO.N,VBATOUT*%
X81535000Y-32315000D02*
X81690000Y-32470000D01*
X78285000Y-41065000D02*
X78040000Y-41310000D01*
X78640000Y-41065000D02*
X78285000Y-41065000D01*
X81435000Y-32215000D02*
X81690000Y-32470000D01*
X81435000Y-31090000D02*
X81435000Y-32215000D01*
X80500000Y-33145000D02*
X80500000Y-33140000D01*
X80500000Y-33140000D02*
X80820000Y-32820000D01*
X81340000Y-32820000D02*
X81690000Y-32470000D01*
X80820000Y-32820000D02*
X81340000Y-32820000D01*
%TO.N,VDD*%
X79515000Y-37820000D02*
X79515000Y-38080000D01*
X80260000Y-37075000D02*
X79515000Y-37820000D01*
X80580000Y-37075000D02*
X80260000Y-37075000D01*
X80575000Y-41340000D02*
X80575000Y-41505000D01*
X80090000Y-41360000D02*
X80000000Y-41270000D01*
X80685000Y-41360000D02*
X80090000Y-41360000D01*
X71300000Y-32337906D02*
X71109992Y-32527914D01*
X71109992Y-32527914D02*
X71109992Y-33020008D01*
X71109992Y-33020008D02*
X70375010Y-33754990D01*
X79615000Y-34560000D02*
X79615000Y-35124254D01*
X79895373Y-36710373D02*
X79895373Y-35828891D01*
X79895373Y-35828891D02*
X79895373Y-35404627D01*
X79615000Y-35124254D02*
X79895373Y-35404627D01*
X80260000Y-37075000D02*
X79895373Y-36710373D01*
X78265000Y-31400000D02*
X78265000Y-31295000D01*
X78265000Y-31295000D02*
X77820000Y-30850000D01*
X71300000Y-31115000D02*
X71615000Y-30800000D01*
X71300000Y-32337906D02*
X71300000Y-31115000D01*
X71300000Y-31110000D02*
X71300000Y-31115000D01*
X70980000Y-30790000D02*
X71300000Y-31110000D01*
X71605000Y-30790000D02*
X71615000Y-30800000D01*
X70980000Y-30790000D02*
X71605000Y-30790000D01*
%TO.N,Net-(D1-Pad1)*%
X72150000Y-31288586D02*
X72150000Y-31695000D01*
X72150000Y-31695000D02*
X72025000Y-31820000D01*
X72585000Y-30853586D02*
X72150000Y-31288586D01*
X72585000Y-30800000D02*
X72585000Y-30853586D01*
%TO.N,Net-(D2-Pad1)*%
X70545000Y-41800000D02*
X70525000Y-41820000D01*
X70875000Y-41800000D02*
X70545000Y-41800000D01*
X73930000Y-32835000D02*
X73930000Y-33759998D01*
%TO.N,INW*%
X78598378Y-35500000D02*
X79040000Y-35058378D01*
X78127500Y-35500000D02*
X78598378Y-35500000D01*
X79040000Y-35058378D02*
X79040000Y-30375010D01*
%TO.N,INV*%
X76452598Y-30437608D02*
X76390000Y-30375010D01*
X76499159Y-32479159D02*
X76310000Y-32290000D01*
X76499159Y-33081440D02*
X76499159Y-32479159D01*
X76390000Y-33190599D02*
X76499159Y-33081440D01*
X76390000Y-34262500D02*
X76390000Y-33190599D01*
X76310000Y-32290000D02*
X76310000Y-32240000D01*
X76310000Y-32240000D02*
X75910000Y-31840000D01*
X75910000Y-30620000D02*
X76154990Y-30375010D01*
X75910000Y-31840000D02*
X75910000Y-30620000D01*
%TO.N,INU*%
X75159999Y-34992501D02*
X75159999Y-32442003D01*
X75409990Y-32192012D02*
X75409990Y-31479990D01*
X75152500Y-35000000D02*
X75159999Y-34992501D01*
X75409990Y-31479990D02*
X74305010Y-30375010D01*
X75159999Y-32442003D02*
X75409990Y-32192012D01*
%TO.N,EN*%
X81420000Y-40360000D02*
X81690000Y-40090000D01*
X80545000Y-40360000D02*
X81420000Y-40360000D01*
X81545000Y-40235000D02*
X81690000Y-40090000D01*
X81545000Y-41340000D02*
X81545000Y-40235000D01*
%TO.N,ENW*%
X78127500Y-34642500D02*
X78360000Y-34410000D01*
X78127500Y-35000000D02*
X78127500Y-34642500D01*
X81160000Y-38080000D02*
X81690000Y-37550000D01*
X80485000Y-38080000D02*
X81160000Y-38080000D01*
%TO.N,ENV*%
X81515000Y-36105000D02*
X81690000Y-36280000D01*
X80580000Y-36105000D02*
X81515000Y-36105000D01*
X75890000Y-34262500D02*
X75890000Y-32897155D01*
X75890000Y-32897155D02*
X75810750Y-32817905D01*
%TO.N,ENU*%
X80585000Y-34560000D02*
X80585000Y-34705000D01*
X80890000Y-35010000D02*
X81690000Y-35010000D01*
X80585000Y-34705000D02*
X80890000Y-35010000D01*
X75152500Y-35500000D02*
X74681622Y-35500000D01*
X74410002Y-35228380D02*
X74410002Y-34699998D01*
X74681622Y-35500000D02*
X74410002Y-35228380D01*
X74410002Y-34699998D02*
X74659989Y-34450011D01*
X74659989Y-34450011D02*
X74659989Y-31980002D01*
X74659989Y-31980002D02*
X74759980Y-31880011D01*
%TO.N,MOTOR3*%
X79110000Y-36000000D02*
X79130000Y-36020000D01*
X78127500Y-36000000D02*
X79110000Y-36000000D01*
D19*
X79130000Y-36020000D02*
X78997630Y-36020000D01*
D17*
X79140000Y-36040000D02*
X79110000Y-36010000D01*
X79140000Y-36630000D02*
X79140000Y-36040000D01*
%TO.N,MOTOR2*%
X77130000Y-41850000D02*
X77055010Y-41924990D01*
X77130000Y-39490000D02*
X77130000Y-41850000D01*
X77130000Y-39490000D02*
X77130000Y-38260000D01*
X77130000Y-38260000D02*
X76890000Y-38020000D01*
D18*
X77130000Y-37967463D02*
X76865000Y-37702463D01*
X76865000Y-37702463D02*
X76865000Y-37469620D01*
X77130000Y-38260000D02*
X77130000Y-37967463D01*
%TO.N,MOTOR1*%
X74200000Y-36000000D02*
X74190000Y-36010000D01*
X75152500Y-36000000D02*
X74200000Y-36000000D01*
D17*
X73920000Y-36280000D02*
X74190000Y-36010000D01*
X73920000Y-36570000D02*
X73920000Y-36280000D01*
D19*
X74190000Y-36010000D02*
X74272370Y-36010000D01*
%TD*%
M02*
