%TF.GenerationSoftware,KiCad,Pcbnew,(5.1.6-0-10_14)*%
%TF.CreationDate,2020-12-19T22:37:24+01:00*%
%TF.ProjectId,ESCv2,45534376-322e-46b6-9963-61645f706362,v0.1*%
%TF.SameCoordinates,Original*%
%TF.FileFunction,Copper,L4,Bot*%
%TF.FilePolarity,Positive*%
%FSLAX46Y46*%
G04 Gerber Fmt 4.6, Leading zero omitted, Abs format (unit mm)*
G04 Created by KiCad (PCBNEW (5.1.6-0-10_14)) date 2020-12-19 22:37:24*
%MOMM*%
%LPD*%
G01*
G04 APERTURE LIST*
%TA.AperFunction,ComponentPad*%
%ADD10O,1.700000X1.700000*%
%TD*%
%TA.AperFunction,ComponentPad*%
%ADD11R,1.700000X1.700000*%
%TD*%
%TA.AperFunction,ComponentPad*%
%ADD12O,1.000000X1.000000*%
%TD*%
%TA.AperFunction,ComponentPad*%
%ADD13R,1.000000X1.000000*%
%TD*%
%TA.AperFunction,ViaPad*%
%ADD14C,0.600000*%
%TD*%
%TA.AperFunction,Conductor*%
%ADD15C,1.000000*%
%TD*%
%TA.AperFunction,Conductor*%
%ADD16C,0.700000*%
%TD*%
%TA.AperFunction,Conductor*%
%ADD17C,0.600000*%
%TD*%
%TA.AperFunction,Conductor*%
%ADD18C,0.300000*%
%TD*%
G04 APERTURE END LIST*
D10*
%TO.P,Motor1,3*%
%TO.N,MOTOR3*%
X79040000Y-42480000D03*
%TO.P,Motor1,2*%
%TO.N,MOTOR2*%
X76500000Y-42480000D03*
D11*
%TO.P,Motor1,1*%
%TO.N,MOTOR1*%
X73960000Y-42480000D03*
%TD*%
D12*
%TO.P,J3,7*%
%TO.N,EN*%
X81690000Y-40090000D03*
%TO.P,J3,6*%
%TO.N,EN_FLT*%
X81690000Y-38820000D03*
%TO.P,J3,5*%
%TO.N,ENW*%
X81690000Y-37550000D03*
%TO.P,J3,4*%
%TO.N,ENV*%
X81690000Y-36280000D03*
%TO.P,J3,3*%
%TO.N,ENU*%
X81690000Y-35010000D03*
%TO.P,J3,2*%
%TO.N,STBY_RST*%
X81690000Y-33740000D03*
D13*
%TO.P,J3,1*%
%TO.N,VBATOUT*%
X81690000Y-32470000D03*
%TD*%
D10*
%TO.P,J1,2*%
%TO.N,GNDPWR*%
X70000000Y-39920000D03*
D11*
%TO.P,J1,1*%
%TO.N,VS*%
X70000000Y-37380000D03*
%TD*%
D10*
%TO.P,J5,2*%
%TO.N,GNDPWR*%
X70000000Y-31920000D03*
D11*
%TO.P,J5,1*%
%TO.N,VDD*%
X70000000Y-34460000D03*
%TD*%
D10*
%TO.P,J2,3*%
%TO.N,INW*%
X79040000Y-30030000D03*
%TO.P,J2,2*%
%TO.N,INV*%
X76500000Y-30030000D03*
D11*
%TO.P,J2,1*%
%TO.N,INU*%
X73960000Y-30030000D03*
%TD*%
D14*
%TO.N,GNDPWR*%
X76160000Y-35220000D03*
X77120000Y-35230000D03*
X76630000Y-35760000D03*
X76160000Y-36260000D03*
X77130000Y-36270000D03*
X72340000Y-34960000D03*
X71960000Y-32880000D03*
X72650000Y-32880000D03*
X72990000Y-34950000D03*
X74790000Y-37010000D03*
X74780000Y-37590000D03*
X77868645Y-37215539D03*
X78070000Y-37819998D03*
X77865193Y-32210263D03*
X79850911Y-31880011D03*
%TO.N,EN_FLT*%
X77790000Y-33780000D03*
%TO.N,STBY_RST*%
X77067375Y-32151065D03*
%TO.N,VS*%
X72540000Y-41810000D03*
X75430000Y-39300000D03*
X77990000Y-40100000D03*
X72980000Y-39512990D03*
%TO.N,VBATOUT*%
X78040000Y-41310000D03*
X80850000Y-39540000D03*
%TO.N,VDD*%
X70980000Y-30790000D03*
X80000000Y-41270000D03*
X79895373Y-35404627D03*
X77760000Y-30680000D03*
%TO.N,Net-(D2-Pad1)*%
X70525000Y-41820000D03*
X73930000Y-33759998D03*
%TO.N,ENW*%
X78360000Y-34410000D03*
%TO.N,ENV*%
X75810750Y-32817905D03*
%TO.N,ENU*%
X74759980Y-31880011D03*
%TO.N,MOTOR3*%
X79130000Y-36020000D03*
X79140000Y-36630000D03*
%TO.N,MOTOR1*%
X74190000Y-36010000D03*
X73920000Y-36570000D03*
%TD*%
D15*
%TO.N,GNDPWR*%
X72340000Y-34960000D02*
X72340000Y-38650000D01*
X71070000Y-39920000D02*
X70725010Y-39920000D01*
X72340000Y-38650000D02*
X71070000Y-39920000D01*
X71000000Y-31920000D02*
X70725010Y-31920000D01*
X71960000Y-32880000D02*
X71000000Y-31920000D01*
X72340000Y-33260000D02*
X71960000Y-32880000D01*
D16*
X72340000Y-34300000D02*
X72340000Y-33970000D01*
X72990000Y-34950000D02*
X72340000Y-34300000D01*
D15*
X72340000Y-33970000D02*
X72340000Y-33260000D01*
X72340000Y-34960000D02*
X72340000Y-33970000D01*
D16*
X72650000Y-33660000D02*
X72340000Y-33970000D01*
X72650000Y-32880000D02*
X72650000Y-33660000D01*
D17*
X74790000Y-37010000D02*
X74790000Y-37610000D01*
X74790000Y-37610000D02*
X75260000Y-38080000D01*
D15*
X77110000Y-35220000D02*
X77120000Y-35230000D01*
X76160000Y-35220000D02*
X77110000Y-35220000D01*
X76160000Y-36260000D02*
X77120000Y-36260000D01*
X76160000Y-35220000D02*
X76160000Y-36260000D01*
X77120000Y-36260000D02*
X77130000Y-36270000D01*
X77120000Y-35230000D02*
X77120000Y-36260000D01*
X75869991Y-34929991D02*
X76160000Y-35220000D01*
X73745071Y-34929991D02*
X75869991Y-34929991D01*
X73725062Y-34950000D02*
X73745071Y-34929991D01*
X72990000Y-34950000D02*
X73725062Y-34950000D01*
D16*
X75260000Y-38080000D02*
X77004184Y-38080000D01*
X77004184Y-38080000D02*
X77868645Y-37215539D01*
D15*
X77444381Y-37215539D02*
X77868645Y-37215539D01*
X77005539Y-37215539D02*
X77444381Y-37215539D01*
X75300000Y-35510000D02*
X77005539Y-37215539D01*
X75780008Y-37819998D02*
X78070000Y-37819998D01*
D16*
X77500000Y-37540000D02*
X77790002Y-37540000D01*
X77790002Y-37540000D02*
X78070000Y-37819998D01*
D15*
X74970010Y-37010000D02*
X75780008Y-37819998D01*
D18*
X71070000Y-39920000D02*
X70375010Y-39920000D01*
D15*
X70000000Y-39920000D02*
X71070000Y-39920000D01*
D18*
%TO.N,VS*%
X72540000Y-39952990D02*
X72980000Y-39512990D01*
X72540000Y-41810000D02*
X72540000Y-39952990D01*
%TO.N,VBATOUT*%
X80839999Y-39529999D02*
X80850000Y-39540000D01*
X81690000Y-32470000D02*
X80839999Y-33320001D01*
X80839999Y-33320001D02*
X80839999Y-39529999D01*
%TO.N,VDD*%
X79010000Y-34519254D02*
X79895373Y-35404627D01*
X80000000Y-35509254D02*
X79895373Y-35404627D01*
X80000000Y-41270000D02*
X80000000Y-35509254D01*
X79010000Y-31930000D02*
X79010000Y-34519254D01*
X77760000Y-30680000D02*
X79010000Y-31930000D01*
X77626002Y-30680000D02*
X77760000Y-30680000D01*
X77076001Y-31230001D02*
X77626002Y-30680000D01*
X72829999Y-31230001D02*
X77076001Y-31230001D01*
X72389998Y-30790000D02*
X72829999Y-31230001D01*
X70980000Y-30790000D02*
X72389998Y-30790000D01*
%TO.N,MOTOR3*%
X79130000Y-36020000D02*
X79130000Y-36620000D01*
X79130000Y-36620000D02*
X79140000Y-36630000D01*
D16*
X79130000Y-36020000D02*
X79130000Y-38824939D01*
X79130000Y-38824939D02*
X79130000Y-41924990D01*
%TO.N,MOTOR1*%
X73920000Y-36570000D02*
X73920000Y-41924990D01*
X73920000Y-36240000D02*
X74180000Y-35980000D01*
X73920000Y-36570000D02*
X73920000Y-36240000D01*
%TD*%
M02*
